<svg xmlns="http://www.w3.org/2000/svg" width="805" height="600"><rect width="805" height="600" x="0" y="0" fill="#CCE6E5" id="backgorund"/><g id="viz"><g transform="translate(0,0)"><g transform="translate(10,20)"><g><path fill="#8b572a" d="M0,44.90909090909099C12.265625,44.90909090909099,12.265625,44.90909090909093,24.53125,44.90909090909093C36.796875,44.90909090909093,36.796875,44.90909090909093,49.0625,44.90909090909093C61.328125,44.90909090909093,61.328125,44.90909090909093,73.59375,44.90909090909093C85.859375,44.90909090909093,85.859375,44.90909090909093,98.125,44.90909090909093C110.390625,44.90909090909093,110.390625,44.90909090909099,122.65625,44.90909090909099C134.921875,44.90909090909099,134.921875,44.90909090909105,147.1875,44.90909090909105C159.453125,44.90909090909105,159.453125,44.90909090909093,171.71875,44.90909090909093C183.984375,44.90909090909093,183.984375,44.90909090909105,196.25,44.90909090909105C208.515625,44.90909090909105,208.515625,42.90909090909093,220.78125,42.90909090909093C233.046875,42.90909090909093,233.046875,42.90909090909105,245.3125,42.90909090909105C257.578125,42.90909090909105,257.578125,42.90909090909093,269.84375,42.90909090909093C282.109375,42.90909090909093,282.109375,42.90909090909093,294.375,42.90909090909093C306.640625,42.90909090909093,306.640625,42.909090909090864,318.90625,42.909090909090864C331.171875,42.909090909090864,331.171875,42.909090909090864,343.4375,42.909090909090864C355.703125,42.909090909090864,355.703125,42.90909090909093,367.96875,42.90909090909093C380.234375,42.90909090909093,380.234375,42.90909090909093,392.5,42.90909090909093C404.765625,42.90909090909093,404.765625,42.90909090909093,417.03125,42.90909090909093C429.296875,42.90909090909093,429.296875,42.90909090909093,441.5625,42.90909090909093C453.828125,42.90909090909093,453.828125,42.90909090909093,466.09375,42.90909090909093C478.359375,42.90909090909093,478.359375,42.90909090909105,490.625,42.90909090909105C502.890625,42.90909090909105,502.890625,42.90909090909099,515.15625,42.90909090909099C527.421875,42.90909090909099,527.421875,42.90909090909099,539.6875,42.90909090909099C551.953125,42.90909090909099,551.953125,42.90909090909105,564.21875,42.90909090909105C576.484375,42.90909090909105,576.484375,42.90909090909093,588.75,42.90909090909093C601.015625,42.90909090909093,601.015625,42.909090909090864,613.28125,42.909090909090864C625.546875,42.909090909090864,625.546875,42.90909090909093,637.8125,42.90909090909093C650.078125,42.90909090909093,650.078125,42.90909090909093,662.34375,42.90909090909093C674.609375,42.90909090909093,674.609375,42.90909090909093,686.875,42.90909090909093C699.140625,42.90909090909093,699.140625,42.909090909090864,711.40625,42.909090909090864C723.671875,42.909090909090864,723.671875,42.90909090909099,735.9375,42.90909090909099C748.203125,42.90909090909099,748.203125,42.90909090909099,760.46875,42.90909090909099C772.734375,42.90909090909099,772.734375,42.90909090909105,785,42.90909090909105L785,224.76696612192998C772.734375,224.76696612192998,772.734375,227.3016714256769,760.46875,227.3016714256769C748.203125,227.3016714256769,748.203125,222.9504621772846,735.9375,222.9504621772846C723.671875,222.9504621772846,723.671875,229.8372132426926,711.40625,229.8372132426926C699.140625,229.8372132426926,699.140625,236.5803295678613,686.875,236.5803295678613C674.609375,236.5803295678613,674.609375,236.5442340161517,662.34375,236.5442340161517C650.078125,236.5442340161517,650.078125,236.25847957641105,637.8125,236.25847957641105C625.546875,236.25847957641105,625.546875,240.01485999060327,613.28125,240.01485999060327C601.015625,240.01485999060327,601.015625,249.29356125859027,588.75,249.29356125859027C576.484375,249.29356125859027,576.484375,250.6397808548001,564.21875,250.6397808548001C551.953125,250.6397808548001,551.953125,246.2670031700244,539.6875,246.2670031700244C527.421875,246.2670031700244,527.421875,250.1302120564058,515.15625,250.1302120564058C502.890625,250.1302120564058,502.890625,246.14125629247764,490.625,246.14125629247764C478.359375,246.14125629247764,478.359375,246.35755154470888,466.09375,246.35755154470888C453.828125,246.35755154470888,453.828125,248.19168443382432,441.5625,248.19168443382432C429.296875,248.19168443382432,429.296875,251.51001677422602,417.03125,251.51001677422602C404.765625,251.51001677422602,404.765625,247.96166305515547,392.5,247.96166305515547C380.234375,247.96166305515547,380.234375,244.6904934173592,367.96875,244.6904934173592C355.703125,244.6904934173592,355.703125,242.386329358923,343.4375,242.386329358923C331.171875,242.386329358923,331.171875,244.72577618580678,318.90625,244.72577618580678C306.640625,244.72577618580678,306.640625,238.87174031395605,294.375,238.87174031395605C282.109375,238.87174031395605,282.109375,237.25231387800366,269.84375,237.25231387800366C257.578125,237.25231387800366,257.578125,237.37828931489284,245.3125,237.37828931489284C233.046875,237.37828931489284,233.046875,238.65280920744374,220.78125,238.65280920744374C208.515625,238.65280920744374,208.515625,241.89347339972988,196.25,241.89347339972988C183.984375,241.89347339972988,183.984375,242.87364018653616,171.71875,242.87364018653616C159.453125,242.87364018653616,159.453125,243.11898957369064,147.1875,243.11898957369064C134.921875,243.11898957369064,134.921875,239.98124851961396,122.65625,239.98124851961396C110.390625,239.98124851961396,110.390625,240.86607470438173,98.125,240.86607470438173C85.859375,240.86607470438173,85.859375,239.15713357486692,73.59375,239.15713357486692C61.328125,239.15713357486692,61.328125,240.00938977732426,49.0625,240.00938977732426C36.796875,240.00938977732426,36.796875,237.7278713178484,24.53125,237.7278713178484C12.265625,237.7278713178484,12.265625,237.6964248471966,0,237.6964248471966Z"><title>coal</title></path><path fill="#3185fc" d="M0,238.6964248471966C12.265625,238.6964248471966,12.265625,238.7278713178484,24.53125,238.7278713178484C36.796875,238.7278713178484,36.796875,241.00938977732426,49.0625,241.00938977732426C61.328125,241.00938977732426,61.328125,240.15713357486692,73.59375,240.15713357486692C85.859375,240.15713357486692,85.859375,241.86607470438173,98.125,241.86607470438173C110.390625,241.86607470438173,110.390625,240.98124851961396,122.65625,240.98124851961396C134.921875,240.98124851961396,134.921875,244.11898957369064,147.1875,244.11898957369064C159.453125,244.11898957369064,159.453125,243.87364018653616,171.71875,243.87364018653616C183.984375,243.87364018653616,183.984375,242.89347339972988,196.25,242.89347339972988C208.515625,242.89347339972988,208.515625,331.0618347867453,220.78125,331.0618347867453C233.046875,331.0618347867453,233.046875,330.5449919785508,245.3125,330.5449919785508C257.578125,330.5449919785508,257.578125,421.20256000469016,269.84375,421.20256000469016C282.109375,421.20256000469016,282.109375,424.2295575916052,294.375,424.2295575916052C306.640625,424.2295575916052,306.640625,345.64910890218414,318.90625,345.64910890218414C331.171875,345.64910890218414,331.171875,345.8936326077436,343.4375,345.8936326077436C355.703125,345.8936326077436,355.703125,349.2882483994389,367.96875,349.2882483994389C380.234375,349.2882483994389,380.234375,354.48448782588997,392.5,354.48448782588997C404.765625,354.48448782588997,404.765625,361.5860001948024,417.03125,361.5860001948024C429.296875,361.5860001948024,429.296875,359.22159300147547,441.5625,359.22159300147547C453.828125,359.22159300147547,453.828125,358.9059358005827,466.09375,358.9059358005827C478.359375,358.9059358005827,478.359375,362.448590313959,490.625,362.448590313959C502.890625,362.448590313959,502.890625,364.20801604456636,515.15625,364.20801604456636C527.421875,364.20801604456636,527.421875,364.062452025944,539.6875,364.062452025944C551.953125,364.062452025944,551.953125,362.89200613222016,564.21875,362.89200613222016C576.484375,362.89200613222016,576.484375,362.05570695537017,588.75,362.05570695537017C601.015625,362.05570695537017,601.015625,358.6037261555538,613.28125,358.6037261555538C625.546875,358.6037261555538,625.546875,357.0545098907795,637.8125,357.0545098907795C650.078125,357.0545098907795,650.078125,356.36253788726384,662.34375,356.36253788726384C674.609375,356.36253788726384,674.609375,356.2616308970054,686.875,356.2616308970054C699.140625,356.2616308970054,699.140625,351.0956761877348,711.40625,351.0956761877348C723.671875,351.0956761877348,723.671875,343.76141549229493,735.9375,343.76141549229493C748.203125,343.76141549229493,748.203125,345.00198926057965,760.46875,345.00198926057965C772.734375,345.00198926057965,772.734375,339.3621620739686,785,339.3621620739686L785,416.57517080014196C772.734375,416.57517080014196,772.734375,422.63368354962375,760.46875,422.63368354962375C748.203125,422.63368354962375,748.203125,427.8662263492238,735.9375,427.8662263492238C723.671875,427.8662263492238,723.671875,432.58144802979695,711.40625,432.58144802979695C699.140625,432.58144802979695,699.140625,437.9370210064481,686.875,437.9370210064481C674.609375,437.9370210064481,674.609375,438.8288207652719,662.34375,438.8288207652719C650.078125,438.8288207652719,650.078125,440.8023291123439,637.8125,440.8023291123439C625.546875,440.8023291123439,625.546875,441.87389540987544,613.28125,441.87389540987544C601.015625,441.87389540987544,601.015625,446.07446518864487,588.75,446.07446518864487C576.484375,446.07446518864487,576.484375,447.1936031711597,564.21875,447.1936031711597C551.953125,447.1936031711597,551.953125,447.7636587281218,539.6875,447.7636587281218C527.421875,447.7636587281218,527.421875,446.0051774053972,515.15625,446.0051774053972C502.890625,446.0051774053972,502.890625,445.4164575288863,490.625,445.4164575288863C478.359375,445.4164575288863,478.359375,442.95609314936206,466.09375,442.95609314936206C453.828125,442.95609314936206,453.828125,442.8891930488997,441.5625,442.8891930488997C429.296875,442.8891930488997,429.296875,441.69825291257166,417.03125,441.69825291257166C404.765625,441.69825291257166,404.765625,437.2104789539158,392.5,437.2104789539158C380.234375,437.2104789539158,380.234375,432.25997242421755,367.96875,432.25997242421755C355.703125,432.25997242421755,355.703125,429.18841955417093,343.4375,429.18841955417093C331.171875,429.18841955417093,331.171875,426.96592700951004,318.90625,426.96592700951004C306.640625,426.96592700951004,306.640625,508.4047847230561,294.375,508.4047847230561C282.109375,508.4047847230561,282.109375,506.9996219187801,269.84375,506.9996219187801C257.578125,506.9996219187801,257.578125,419.67999490435625,245.3125,419.67999490435625C233.046875,419.67999490435625,233.046875,421.4673840986018,220.78125,421.4673840986018C208.515625,421.4673840986018,208.515625,335.1477523866847,196.25,335.1477523866847C183.984375,335.1477523866847,183.984375,337.8494420624868,171.71875,337.8494420624868C159.453125,337.8494420624868,159.453125,338.6137424064496,147.1875,338.6137424064496C134.921875,338.6137424064496,134.921875,337.1322149079601,122.65625,337.1322149079601C110.390625,337.1322149079601,110.390625,336.24945448644934,98.125,336.24945448644934C85.859375,336.24945448644934,85.859375,336.3571504757768,73.59375,336.3571504757768C61.328125,336.3571504757768,61.328125,333.67149456099065,49.0625,333.67149456099065C36.796875,333.67149456099065,36.796875,332.18256092394756,24.53125,332.18256092394756C12.265625,332.18256092394756,12.265625,332.00968789785486,0,332.00968789785486Z"><title>hydro</title></path><path fill="#b8e986" d="M0,333.00968789785486C12.265625,333.00968789785486,12.265625,333.18256092394756,24.53125,333.18256092394756C36.796875,333.18256092394756,36.796875,334.67149456099065,49.0625,334.67149456099065C61.328125,334.67149456099065,61.328125,337.3571504757768,73.59375,337.3571504757768C85.859375,337.3571504757768,85.859375,337.24945448644934,98.125,337.24945448644934C110.390625,337.24945448644934,110.390625,338.1322149079601,122.65625,338.1322149079601C134.921875,338.1322149079601,134.921875,339.6137424064496,147.1875,339.6137424064496C159.453125,339.6137424064496,159.453125,338.8494420624868,171.71875,338.8494420624868C183.984375,338.8494420624868,183.984375,336.1477523866847,196.25,336.1477523866847C208.515625,336.1477523866847,208.515625,422.4673840986018,220.78125,422.4673840986018C233.046875,422.4673840986018,233.046875,420.67999490435625,245.3125,420.67999490435625C257.578125,420.67999490435625,257.578125,333.9810420983269,269.84375,333.9810420983269C282.109375,333.9810420983269,282.109375,339.03815156596096,294.375,339.03815156596096C306.640625,339.03815156596096,306.640625,427.96592700951004,318.90625,427.96592700951004C331.171875,427.96592700951004,331.171875,430.18841955417093,343.4375,430.18841955417093C355.703125,430.18841955417093,355.703125,433.25997242421755,367.96875,433.25997242421755C380.234375,433.25997242421755,380.234375,438.2104789539158,392.5,438.2104789539158C404.765625,438.2104789539158,404.765625,442.69825291257166,417.03125,442.69825291257166C429.296875,442.69825291257166,429.296875,443.8891930488997,441.5625,443.8891930488997C453.828125,443.8891930488997,453.828125,443.95609314936206,466.09375,443.95609314936206C478.359375,443.95609314936206,478.359375,446.4164575288863,490.625,446.4164575288863C502.890625,446.4164575288863,502.890625,447.0051774053972,515.15625,447.0051774053972C527.421875,447.0051774053972,527.421875,448.7636587281218,539.6875,448.7636587281218C551.953125,448.7636587281218,551.953125,448.1936031711597,564.21875,448.1936031711597C576.484375,448.1936031711597,576.484375,447.07446518864487,588.75,447.07446518864487C601.015625,447.07446518864487,601.015625,442.87389540987544,613.28125,442.87389540987544C625.546875,442.87389540987544,625.546875,441.8023291123439,637.8125,441.8023291123439C650.078125,441.8023291123439,650.078125,439.8288207652719,662.34375,439.8288207652719C674.609375,439.8288207652719,674.609375,438.9370210064481,686.875,438.9370210064481C699.140625,438.9370210064481,699.140625,433.58144802979695,711.40625,433.58144802979695C723.671875,433.58144802979695,723.671875,428.8662263492238,735.9375,428.8662263492238C748.203125,428.8662263492238,748.203125,423.63368354962375,760.46875,423.63368354962375C772.734375,423.63368354962375,772.734375,417.57517080014196,785,417.57517080014196L785,464.1525269039382C772.734375,464.1525269039382,772.734375,473.7615869823687,760.46875,473.7615869823687C748.203125,473.7615869823687,748.203125,479.91091643160894,735.9375,479.91091643160894C723.671875,479.91091643160894,723.671875,486.1804943483821,711.40625,486.1804943483821C699.140625,486.1804943483821,699.140625,490.18591656552564,686.875,490.18591656552564C674.609375,490.18591656552564,674.609375,492.0312658923087,662.34375,492.0312658923087C650.078125,492.0312658923087,650.078125,495.0382931652497,637.8125,495.0382931652497C625.546875,495.0382931652497,625.546875,496.71815413859065,613.28125,496.71815413859065C601.015625,496.71815413859065,601.015625,500.8181456452374,588.75,500.8181456452374C576.484375,500.8181456452374,576.484375,502.1742311876317,564.21875,502.1742311876317C551.953125,502.1742311876317,551.953125,503.9489737493675,539.6875,503.9489737493675C527.421875,503.9489737493675,527.421875,507.55165136116807,515.15625,507.55165136116807C502.890625,507.55165136116807,502.890625,511.73493411258994,490.625,511.73493411258994C478.359375,511.73493411258994,478.359375,512.1164752758048,466.09375,512.1164752758048C453.828125,512.1164752758048,453.828125,512.6665616698089,441.5625,512.6665616698089C429.296875,512.6665616698089,429.296875,512.8362516579095,417.03125,512.8362516579095C404.765625,512.8362516579095,404.765625,513.2162815864506,392.5,513.2162815864506C380.234375,513.2162815864506,380.234375,510.2643880089255,367.96875,510.2643880089255C355.703125,510.2643880089255,355.703125,510.0890963488064,343.4375,510.0890963488064C331.171875,510.0890963488064,331.171875,508.51342682830136,318.90625,508.51342682830136C306.640625,508.51342682830136,306.640625,423.2295575916052,294.375,423.2295575916052C282.109375,423.2295575916052,282.109375,420.20256000469016,269.84375,420.20256000469016C257.578125,420.20256000469016,257.578125,505.9409969743705,245.3125,505.9409969743705C233.046875,505.9409969743705,233.046875,510.19814028240523,220.78125,510.19814028240523C208.515625,510.19814028240523,208.515625,423.0433979175301,196.25,423.0433979175301C183.984375,423.0433979175301,183.984375,426.5404684785426,171.71875,426.5404684785426C159.453125,426.5404684785426,159.453125,429.9632772108065,147.1875,429.9632772108065C134.921875,429.9632772108065,134.921875,428.04431040073007,122.65625,428.04431040073007C110.390625,428.04431040073007,110.390625,426.4163906406054,98.125,426.4163906406054C85.859375,426.4163906406054,85.859375,427.1274896568824,73.59375,427.1274896568824C61.328125,427.1274896568824,61.328125,423.29573944288404,49.0625,423.29573944288404C36.796875,423.29573944288404,36.796875,421.8817071542781,24.53125,421.8817071542781C12.265625,421.8817071542781,12.265625,419.4824835598564,0,419.4824835598564Z"><title>nuclear</title></path><path fill="#c5283d" d="M0,420.4824835598564C12.265625,420.4824835598564,12.265625,422.8817071542781,24.53125,422.8817071542781C36.796875,422.8817071542781,36.796875,424.29573944288404,49.0625,424.29573944288404C61.328125,424.29573944288404,61.328125,428.1274896568824,73.59375,428.1274896568824C85.859375,428.1274896568824,85.859375,427.4163906406054,98.125,427.4163906406054C110.390625,427.4163906406054,110.390625,429.04431040073007,122.65625,429.04431040073007C134.921875,429.04431040073007,134.921875,430.9632772108065,147.1875,430.9632772108065C159.453125,430.9632772108065,159.453125,427.5404684785426,171.71875,427.5404684785426C183.984375,427.5404684785426,183.984375,424.0433979175301,196.25,424.0433979175301C208.515625,424.0433979175301,208.515625,239.65280920744374,220.78125,239.65280920744374C233.046875,239.65280920744374,233.046875,238.37828931489284,245.3125,238.37828931489284C257.578125,238.37828931489284,257.578125,238.25231387800366,269.84375,238.25231387800366C282.109375,238.25231387800366,282.109375,239.87174031395605,294.375,239.87174031395605C306.640625,239.87174031395605,306.640625,245.72577618580678,318.90625,245.72577618580678C331.171875,245.72577618580678,331.171875,243.386329358923,343.4375,243.386329358923C355.703125,243.386329358923,355.703125,245.6904934173592,367.96875,245.6904934173592C380.234375,245.6904934173592,380.234375,248.96166305515547,392.5,248.96166305515547C404.765625,248.96166305515547,404.765625,252.51001677422602,417.03125,252.51001677422602C429.296875,252.51001677422602,429.296875,249.19168443382432,441.5625,249.19168443382432C453.828125,249.19168443382432,453.828125,247.35755154470888,466.09375,247.35755154470888C478.359375,247.35755154470888,478.359375,247.14125629247764,490.625,247.14125629247764C502.890625,247.14125629247764,502.890625,251.1302120564058,515.15625,251.1302120564058C527.421875,251.1302120564058,527.421875,247.2670031700244,539.6875,247.2670031700244C551.953125,247.2670031700244,551.953125,251.6397808548001,564.21875,251.6397808548001C576.484375,251.6397808548001,576.484375,250.29356125859027,588.75,250.29356125859027C601.015625,250.29356125859027,601.015625,241.01485999060327,613.28125,241.01485999060327C625.546875,241.01485999060327,625.546875,237.25847957641105,637.8125,237.25847957641105C650.078125,237.25847957641105,650.078125,237.5442340161517,662.34375,237.5442340161517C674.609375,237.5442340161517,674.609375,237.5803295678613,686.875,237.5803295678613C699.140625,237.5803295678613,699.140625,230.8372132426926,711.40625,230.8372132426926C723.671875,230.8372132426926,723.671875,223.9504621772846,735.9375,223.9504621772846C748.203125,223.9504621772846,748.203125,228.3016714256769,760.46875,228.3016714256769C772.734375,228.3016714256769,772.734375,225.76696612192998,785,225.76696612192998L785,338.3621620739686C772.734375,338.3621620739686,772.734375,344.00198926057965,760.46875,344.00198926057965C748.203125,344.00198926057965,748.203125,342.76141549229493,735.9375,342.76141549229493C723.671875,342.76141549229493,723.671875,350.0956761877348,711.40625,350.0956761877348C699.140625,350.0956761877348,699.140625,355.2616308970054,686.875,355.2616308970054C674.609375,355.2616308970054,674.609375,355.36253788726384,662.34375,355.36253788726384C650.078125,355.36253788726384,650.078125,356.0545098907795,637.8125,356.0545098907795C625.546875,356.0545098907795,625.546875,357.6037261555538,613.28125,357.6037261555538C601.015625,357.6037261555538,601.015625,361.05570695537017,588.75,361.05570695537017C576.484375,361.05570695537017,576.484375,361.89200613222016,564.21875,361.89200613222016C551.953125,361.89200613222016,551.953125,363.062452025944,539.6875,363.062452025944C527.421875,363.062452025944,527.421875,363.20801604456636,515.15625,363.20801604456636C502.890625,363.20801604456636,502.890625,361.448590313959,490.625,361.448590313959C478.359375,361.448590313959,478.359375,357.9059358005827,466.09375,357.9059358005827C453.828125,357.9059358005827,453.828125,358.22159300147547,441.5625,358.22159300147547C429.296875,358.22159300147547,429.296875,360.5860001948024,417.03125,360.5860001948024C404.765625,360.5860001948024,404.765625,353.48448782588997,392.5,353.48448782588997C380.234375,353.48448782588997,380.234375,348.2882483994389,367.96875,348.2882483994389C355.703125,348.2882483994389,355.703125,344.8936326077436,343.4375,344.8936326077436C331.171875,344.8936326077436,331.171875,344.64910890218414,318.90625,344.64910890218414C306.640625,344.64910890218414,306.640625,338.03815156596096,294.375,338.03815156596096C282.109375,338.03815156596096,282.109375,332.9810420983269,269.84375,332.9810420983269C257.578125,332.9810420983269,257.578125,329.5449919785508,245.3125,329.5449919785508C233.046875,329.5449919785508,233.046875,330.0618347867453,220.78125,330.0618347867453C208.515625,330.0618347867453,208.515625,510.12958833459106,196.25,510.12958833459106C183.984375,510.12958833459106,183.984375,510.8653071958404,171.71875,510.8653071958404C159.453125,510.8653071958404,159.453125,509.86166363639904,147.1875,509.86166363639904C134.921875,509.86166363639904,134.921875,507.87877006405387,122.65625,507.87877006405387C110.390625,507.87877006405387,110.390625,504.53091060986714,98.125,504.53091060986714C85.859375,504.53091060986714,85.859375,504.7032527845478,73.59375,504.7032527845478C61.328125,504.7032527845478,61.328125,501.05279764502615,49.0625,501.05279764502615C36.796875,501.05279764502615,36.796875,499.68840265290567,24.53125,499.68840265290567C12.265625,499.68840265290567,12.265625,497.83974632652723,0,497.83974632652723Z"><title>gas</title></path><path fill="#2e2f2f" d="M0,498.83974632652723C12.265625,498.83974632652723,12.265625,500.68840265290567,24.53125,500.68840265290567C36.796875,500.68840265290567,36.796875,502.05279764502615,49.0625,502.05279764502615C61.328125,502.05279764502615,61.328125,505.7032527845478,73.59375,505.7032527845478C85.859375,505.7032527845478,85.859375,505.53091060986714,98.125,505.53091060986714C110.390625,505.53091060986714,110.390625,508.87877006405387,122.65625,508.87877006405387C134.921875,508.87877006405387,134.921875,510.86166363639904,147.1875,510.86166363639904C159.453125,510.86166363639904,159.453125,511.8653071958404,171.71875,511.8653071958404C183.984375,511.8653071958404,183.984375,511.12958833459106,196.25,511.12958833459106C208.515625,511.12958833459106,208.515625,511.19814028240523,220.78125,511.19814028240523C233.046875,511.19814028240523,233.046875,506.9409969743705,245.3125,506.9409969743705C257.578125,506.9409969743705,257.578125,507.9996219187801,269.84375,507.9996219187801C282.109375,507.9996219187801,282.109375,509.4047847230561,294.375,509.4047847230561C306.640625,509.4047847230561,306.640625,509.51342682830136,318.90625,509.51342682830136C331.171875,509.51342682830136,331.171875,511.0890963488064,343.4375,511.0890963488064C355.703125,511.0890963488064,355.703125,511.2643880089255,367.96875,511.2643880089255C380.234375,511.2643880089255,380.234375,514.2162815864506,392.5,514.2162815864506C404.765625,514.2162815864506,404.765625,513.8362516579095,417.03125,513.8362516579095C429.296875,513.8362516579095,429.296875,513.6665616698089,441.5625,513.6665616698089C453.828125,513.6665616698089,453.828125,513.1164752758048,466.09375,513.1164752758048C478.359375,513.1164752758048,478.359375,512.7349341125899,490.625,512.7349341125899C502.890625,512.7349341125899,502.890625,508.55165136116807,515.15625,508.55165136116807C527.421875,508.55165136116807,527.421875,504.9489737493675,539.6875,504.9489737493675C551.953125,504.9489737493675,551.953125,503.1742311876317,564.21875,503.1742311876317C576.484375,503.1742311876317,576.484375,501.8181456452374,588.75,501.8181456452374C601.015625,501.8181456452374,601.015625,497.71815413859065,613.28125,497.71815413859065C625.546875,497.71815413859065,625.546875,496.0382931652497,637.8125,496.0382931652497C650.078125,496.0382931652497,650.078125,517.1482943102992,662.34375,517.1482943102992C674.609375,517.1482943102992,674.609375,516.939870482369,686.875,516.939870482369C699.140625,516.939870482369,699.140625,515.5897012144414,711.40625,515.5897012144414C723.671875,515.5897012144414,723.671875,530.1453065551743,735.9375,530.1453065551743C748.203125,530.1453065551743,748.203125,529.6087953875597,760.46875,529.6087953875597C772.734375,529.6087953875597,772.734375,528.3356755920295,785,528.3356755920295L785,544.1285479636167C772.734375,544.1285479636167,772.734375,544.1221803403782,760.46875,544.1221803403782C748.203125,544.1221803403782,748.203125,544.5014984984571,735.9375,544.5014984984571C723.671875,544.5014984984571,723.671875,530.5884850972021,711.40625,530.5884850972021C699.140625,530.5884850972021,699.140625,533.3997267907228,686.875,533.3997267907228C674.609375,533.3997267907228,674.609375,535.7221058198905,662.34375,535.7221058198905C650.078125,535.7221058198905,650.078125,517.097311317177,637.8125,517.097311317177C625.546875,517.097311317177,625.546875,520.6998378108134,613.28125,520.6998378108134C601.015625,520.6998378108134,601.015625,524.938339218617,588.75,524.938339218617C576.484375,524.938339218617,576.484375,528.1420907605406,564.21875,528.1420907605406C551.953125,528.1420907605406,551.953125,531.5203443622286,539.6875,531.5203443622286C527.421875,531.5203443622286,527.421875,534.5036331133791,515.15625,534.5036331133791C502.890625,534.5036331133791,502.890625,537.3354940498525,490.625,537.3354940498525C478.359375,537.3354940498525,478.359375,539.2750714128533,466.09375,539.2750714128533C453.828125,539.2750714128533,453.828125,541.606687936083,441.5625,541.606687936083C429.296875,541.606687936083,429.296875,543.275370347463,417.03125,543.275370347463C404.765625,543.275370347463,404.765625,544.4526529793442,392.5,544.4526529793442C380.234375,544.4526529793442,380.234375,545.257297239648,367.96875,545.257297239648C355.703125,545.257297239648,355.703125,546.1580931935799,343.4375,546.1580931935799C331.171875,546.1580931935799,331.171875,546.9544168088948,318.90625,546.9544168088948C306.640625,546.9544168088948,306.640625,547.4439535947711,294.375,547.4439535947711C282.109375,547.4439535947711,282.109375,548.1202609358647,269.84375,548.1202609358647C257.578125,548.1202609358647,257.578125,548.0683802367956,245.3125,548.0683802367956C233.046875,548.0683802367956,233.046875,555.230626026662,220.78125,555.230626026662C208.515625,555.230626026662,208.515625,557.4016399943994,196.25,557.4016399943994C183.984375,557.4016399943994,183.984375,557.5311821776356,171.71875,557.5311821776356C159.453125,557.5311821776356,159.453125,557.6277757909346,147.1875,557.6277757909346C134.921875,557.6277757909346,134.921875,557.6550282365247,122.65625,557.6550282365247C110.390625,557.6550282365247,110.390625,557.6904078108435,98.125,557.6904078108435C85.859375,557.6904078108435,85.859375,557.7427700595854,73.59375,557.7427700595854C61.328125,557.7427700595854,61.328125,557.7818407561571,49.0625,557.7818407561571C36.796875,557.7818407561571,36.796875,557.8057272297699,24.53125,557.8057272297699C12.265625,557.8057272297699,12.265625,557.826205993707,0,557.826205993707Z"><title>oil</title></path><path fill="#a599b5" d="M0,558.826205993707C12.265625,558.826205993707,12.265625,558.8057272297699,24.53125,558.8057272297699C36.796875,558.8057272297699,36.796875,558.7818407561571,49.0625,558.7818407561571C61.328125,558.7818407561571,61.328125,558.7427700595854,73.59375,558.7427700595854C85.859375,558.7427700595854,85.859375,558.6904078108435,98.125,558.6904078108435C110.390625,558.6904078108435,110.390625,558.6550282365247,122.65625,558.6550282365247C134.921875,558.6550282365247,134.921875,558.6277757909346,147.1875,558.6277757909346C159.453125,558.6277757909346,159.453125,558.5311821776356,171.71875,558.5311821776356C183.984375,558.5311821776356,183.984375,558.4016399943994,196.25,558.4016399943994C208.515625,558.4016399943994,208.515625,556.230626026662,220.78125,556.230626026662C233.046875,556.230626026662,233.046875,557.903732225132,245.3125,557.903732225132C257.578125,557.903732225132,257.578125,557.6763807218061,269.84375,557.6763807218061C282.109375,557.6763807218061,282.109375,557.261416029979,294.375,557.261416029979C306.640625,557.261416029979,306.640625,554.2012175330156,318.90625,554.2012175330156C331.171875,554.2012175330156,331.171875,553.6543119318361,343.4375,553.6543119318361C355.703125,553.6543119318361,355.703125,553.2309105873011,367.96875,553.2309105873011C380.234375,553.2309105873011,380.234375,552.5425921102703,392.5,552.5425921102703C404.765625,552.5425921102703,404.765625,551.6697702600743,417.03125,551.6697702600743C429.296875,551.6697702600743,429.296875,550.2989151413915,441.5625,550.2989151413915C453.828125,550.2989151413915,453.828125,548.5504569888163,466.09375,548.5504569888163C478.359375,548.5504569888163,478.359375,538.3354940498525,490.625,538.3354940498525C502.890625,538.3354940498525,502.890625,535.5036331133791,515.15625,535.5036331133791C527.421875,535.5036331133791,527.421875,532.5203443622286,539.6875,532.5203443622286C551.953125,532.5203443622286,551.953125,529.1420907605406,564.21875,529.1420907605406C576.484375,529.1420907605406,576.484375,525.938339218617,588.75,525.938339218617C601.015625,525.938339218617,601.015625,521.6998378108134,613.28125,521.6998378108134C625.546875,521.6998378108134,625.546875,518.097311317177,637.8125,518.097311317177C650.078125,518.097311317177,650.078125,493.0312658923087,662.34375,493.0312658923087C674.609375,493.0312658923087,674.609375,491.18591656552564,686.875,491.18591656552564C699.140625,491.18591656552564,699.140625,487.1804943483821,711.40625,487.1804943483821C723.671875,487.1804943483821,723.671875,480.91091643160894,735.9375,480.91091643160894C748.203125,480.91091643160894,748.203125,474.7615869823687,760.46875,474.7615869823687C772.734375,474.7615869823687,772.734375,465.1525269039382,785,465.1525269039382L785,503.32806348495774C772.734375,503.32806348495774,772.734375,508.58646333454533,760.46875,508.58646333454533C748.203125,508.58646333454533,748.203125,511.6600971589263,735.9375,511.6600971589263C723.671875,511.6600971589263,723.671875,514.5897012144414,711.40625,514.5897012144414C699.140625,514.5897012144414,699.140625,515.939870482369,686.875,515.939870482369C674.609375,515.939870482369,674.609375,516.1482943102992,662.34375,516.1482943102992C650.078125,516.1482943102992,650.078125,538.2068547512409,637.8125,538.2068547512409C625.546875,538.2068547512409,625.546875,539.5235580062641,613.28125,539.5235580062641C601.015625,539.5235580062641,601.015625,541.5115525012446,588.75,541.5115525012446C576.484375,541.5115525012446,576.484375,543.4532827956216,564.21875,543.4532827956216C551.953125,543.4532827956216,551.953125,544.6703861941497,539.6875,544.6703861941497C527.421875,544.6703861941497,527.421875,545.8572012363069,515.15625,545.8572012363069C502.890625,545.8572012363069,502.890625,546.7479431323541,490.625,546.7479431323541C478.359375,546.7479431323541,478.359375,555.7303295436246,466.09375,555.7303295436246C453.828125,555.7303295436246,453.828125,555.99756256854,441.5625,555.99756256854C429.296875,555.99756256854,429.296875,556.1645752656859,417.03125,556.1645752656859C404.765625,556.1645752656859,404.765625,556.2024537014889,392.5,556.2024537014889C380.234375,556.2024537014889,380.234375,556.208259899754,367.96875,556.208259899754C355.703125,556.208259899754,355.703125,556.1936400429433,343.4375,556.1936400429433C331.171875,556.1936400429433,331.171875,556.183258923826,318.90625,556.183258923826C306.640625,556.183258923826,306.640625,558.9453153376263,294.375,558.9453153376263C282.109375,558.9453153376263,282.109375,558.9547738287633,269.84375,558.9547738287633C257.578125,558.9547738287633,257.578125,558.9632763896756,245.3125,558.9632763896756C233.046875,558.9632763896756,233.046875,556.9685297714476,220.78125,556.9685297714476C208.515625,556.9685297714476,208.515625,558.9709828255574,196.25,558.9709828255574C183.984375,558.9709828255574,183.984375,558.9724952632818,171.71875,558.9724952632818C159.453125,558.9724952632818,159.453125,558.9737493942291,147.1875,558.9737493942291C134.921875,558.9737493942291,134.921875,558.9752669318922,122.65625,558.9752669318922C110.390625,558.9752669318922,110.390625,558.9760864137029,98.125,558.9760864137029C85.859375,558.9760864137029,85.859375,558.9771286326609,73.59375,558.9771286326609C61.328125,558.9771286326609,61.328125,558.9804191684119,49.0625,558.9804191684119C36.796875,558.9804191684119,36.796875,558.9786187567312,24.53125,558.9786187567312C12.265625,558.9786187567312,12.265625,558.9832141492477,0,558.9832141492477Z"><title>wind</title></path><path fill="#f5a623" d="M0,559.9832141492477C12.265625,559.9832141492477,12.265625,559.9786187567312,24.53125,559.9786187567312C36.796875,559.9786187567312,36.796875,559.9804191684119,49.0625,559.9804191684119C61.328125,559.9804191684119,61.328125,559.9771286326609,73.59375,559.9771286326609C85.859375,559.9771286326609,85.859375,559.9760864137029,98.125,559.9760864137029C110.390625,559.9760864137029,110.390625,559.9752669318922,122.65625,559.9752669318922C134.921875,559.9752669318922,134.921875,559.9737493942291,147.1875,559.9737493942291C159.453125,559.9737493942291,159.453125,559.9724952632818,171.71875,559.9724952632818C183.984375,559.9724952632818,183.984375,559.9709828255574,196.25,559.9709828255574C208.515625,559.9709828255574,208.515625,557.9685297714476,220.78125,557.9685297714476C233.046875,557.9685297714476,233.046875,559.9632763896756,245.3125,559.9632763896756C257.578125,559.9632763896756,257.578125,559.9547738287633,269.84375,559.9547738287633C282.109375,559.9547738287633,282.109375,559.9453153376263,294.375,559.9453153376263C306.640625,559.9453153376263,306.640625,559.9353172681857,318.90625,559.9353172681857C331.171875,559.9353172681857,331.171875,559.91928713135,343.4375,559.91928713135C355.703125,559.91928713135,355.703125,559.8916702242653,367.96875,559.8916702242653C380.234375,559.8916702242653,380.234375,559.8591618892151,392.5,559.8591618892151C404.765625,559.8591618892151,404.765625,559.8180091823835,417.03125,559.8180091823835C429.296875,559.8180091823835,429.296875,559.7058361667996,441.5625,559.7058361667996C453.828125,559.7058361667996,453.828125,559.5005736032812,466.09375,559.5005736032812C478.359375,559.5005736032812,478.359375,559.2450459723932,490.625,559.2450459723932C502.890625,559.2450459723932,502.890625,558.5459066091349,515.15625,558.5459066091349C527.421875,558.5459066091349,527.421875,555.1867363183293,539.6875,555.1867363183293C551.953125,555.1867363183293,551.953125,554.4466316653048,564.21875,554.4466316653048C576.484375,554.4466316653048,576.484375,553.0416174382779,588.75,553.0416174382779C601.015625,553.0416174382779,601.015625,551.7609493070036,613.28125,551.7609493070036C625.546875,551.7609493070036,625.546875,550.3442942626223,637.8125,550.3442942626223C650.078125,550.3442942626223,650.078125,548.1997396204154,662.34375,548.1997396204154C674.609375,548.1997396204154,674.609375,534.3997267907228,686.875,534.3997267907228C699.140625,534.3997267907228,699.140625,531.5884850972021,711.40625,531.5884850972021C723.671875,531.5884850972021,723.671875,512.6600971589263,735.9375,512.6600971589263C748.203125,512.6600971589263,748.203125,509.58646333454533,760.46875,509.58646333454533C772.734375,509.58646333454533,772.734375,504.32806348495774,785,504.32806348495774L785,527.3356755920295C772.734375,527.3356755920295,772.734375,528.6087953875597,760.46875,528.6087953875597C748.203125,528.6087953875597,748.203125,529.1453065551743,735.9375,529.1453065551743C723.671875,529.1453065551743,723.671875,545.1277076193486,711.40625,545.1277076193486C699.140625,545.1277076193486,699.140625,545.5622772624196,686.875,545.5622772624196C674.609375,545.5622772624196,674.609375,557.2426412254114,662.34375,557.2426412254114C650.078125,557.2426412254114,650.078125,557.2416591574507,637.8125,557.2416591574507C625.546875,557.2416591574507,625.546875,557.2448895344558,613.28125,557.2448895344558C601.015625,557.2448895344558,601.015625,557.3116394637974,588.75,557.3116394637974C576.484375,557.3116394637974,576.484375,557.3799829719011,564.21875,557.3799829719011C551.953125,557.3799829719011,551.953125,557.3723706506274,539.6875,557.3723706506274C527.421875,557.3723706506274,527.421875,560,515.15625,560C502.890625,560,502.890625,560,490.625,560C478.359375,560,478.359375,560,466.09375,560C453.828125,560,453.828125,560,441.5625,560C429.296875,560,429.296875,560,417.03125,560C404.765625,560,404.765625,560,392.5,560C380.234375,560,380.234375,560,367.96875,560C355.703125,560,355.703125,560,343.4375,560C331.171875,560,331.171875,560,318.90625,560C306.640625,560,306.640625,560,294.375,560C282.109375,560,282.109375,560,269.84375,560C257.578125,560,257.578125,560,245.3125,560C233.046875,560,233.046875,558,220.78125,558C208.515625,558,208.515625,560,196.25,560C183.984375,560,183.984375,560,171.71875,560C159.453125,560,159.453125,560,147.1875,560C134.921875,560,134.921875,560,122.65625,560C110.390625,560,110.390625,560,98.125,560C85.859375,560,85.859375,560,73.59375,560C61.328125,560,61.328125,560,49.0625,560C36.796875,560,36.796875,560,24.53125,560C12.265625,560,12.265625,560,0,560Z"><title>solar</title></path><path fill="#89cfa5" d="M0,560C12.265625,560,12.265625,560,24.53125,560C36.796875,560,36.796875,560,49.0625,560C61.328125,560,61.328125,560,73.59375,560C85.859375,560,85.859375,560,98.125,560C110.390625,560,110.390625,560,122.65625,560C134.921875,560,134.921875,560,147.1875,560C159.453125,560,159.453125,560,171.71875,560C183.984375,560,183.984375,560,196.25,560C208.515625,560,208.515625,560,220.78125,560C233.046875,560,233.046875,555.1229771578294,245.3125,555.1229771578294C257.578125,555.1229771578294,257.578125,554.9142350869541,269.84375,554.9142350869541C282.109375,554.9142350869541,282.109375,554.5115068340227,294.375,554.5115068340227C306.640625,554.5115068340227,306.640625,557.183258923826,318.90625,557.183258923826C331.171875,557.183258923826,331.171875,557.1936400429433,343.4375,557.1936400429433C355.703125,557.1936400429433,355.703125,557.208259899754,367.96875,557.208259899754C380.234375,557.208259899754,380.234375,557.2024537014889,392.5,557.2024537014889C404.765625,557.2024537014889,404.765625,557.1645752656859,417.03125,557.1645752656859C429.296875,557.1645752656859,429.296875,556.99756256854,441.5625,556.99756256854C453.828125,556.99756256854,453.828125,556.7303295436246,466.09375,556.7303295436246C478.359375,556.7303295436246,478.359375,556.582445121902,490.625,556.582445121902C502.890625,556.582445121902,502.890625,555.9079650320683,515.15625,555.9079650320683C527.421875,555.9079650320683,527.421875,558.3723706506274,539.6875,558.3723706506274C551.953125,558.3723706506274,551.953125,558.3799829719011,564.21875,558.3799829719011C576.484375,558.3799829719011,576.484375,558.3116394637974,588.75,558.3116394637974C601.015625,558.3116394637974,601.015625,558.2448895344558,613.28125,558.2448895344558C625.546875,558.2448895344558,625.546875,558.2416591574507,637.8125,558.2416591574507C650.078125,558.2416591574507,650.078125,558.2426412254114,662.34375,558.2426412254114C674.609375,558.2426412254114,674.609375,558.248252152697,686.875,558.248252152697C699.140625,558.248252152697,699.140625,558.2399918240511,711.40625,558.2399918240511C723.671875,558.2399918240511,723.671875,558.1757367970588,735.9375,558.1757367970588C748.203125,558.1757367970588,748.203125,558.2624833711167,760.46875,558.2624833711167C772.734375,558.2624833711167,772.734375,558.2200941373341,785,558.2200941373341L785,560C772.734375,560,772.734375,560,760.46875,560C748.203125,560,748.203125,560,735.9375,560C723.671875,560,723.671875,560,711.40625,560C699.140625,560,699.140625,560,686.875,560C674.609375,560,674.609375,560,662.34375,560C650.078125,560,650.078125,560,637.8125,560C625.546875,560,625.546875,560,613.28125,560C601.015625,560,601.015625,560,588.75,560C576.484375,560,576.484375,560,564.21875,560C551.953125,560,551.953125,560,539.6875,560C527.421875,560,527.421875,557.5459066091349,515.15625,557.5459066091349C502.890625,557.5459066091349,502.890625,558.2450459723932,490.625,558.2450459723932C478.359375,558.2450459723932,478.359375,558.5005736032812,466.09375,558.5005736032812C453.828125,558.5005736032812,453.828125,558.7058361667996,441.5625,558.7058361667996C429.296875,558.7058361667996,429.296875,558.8180091823835,417.03125,558.8180091823835C404.765625,558.8180091823835,404.765625,558.8591618892151,392.5,558.8591618892151C380.234375,558.8591618892151,380.234375,558.8916702242653,367.96875,558.8916702242653C355.703125,558.8916702242653,355.703125,558.91928713135,343.4375,558.91928713135C331.171875,558.91928713135,331.171875,558.9353172681857,318.90625,558.9353172681857C306.640625,558.9353172681857,306.640625,556.261416029979,294.375,556.261416029979C282.109375,556.261416029979,282.109375,556.6763807218061,269.84375,556.6763807218061C257.578125,556.6763807218061,257.578125,556.903732225132,245.3125,556.903732225132C233.046875,556.903732225132,233.046875,560,220.78125,560C208.515625,560,208.515625,560,196.25,560C183.984375,560,183.984375,560,171.71875,560C159.453125,560,159.453125,560,147.1875,560C134.921875,560,134.921875,560,122.65625,560C110.390625,560,110.390625,560,98.125,560C85.859375,560,85.859375,560,73.59375,560C61.328125,560,61.328125,560,49.0625,560C36.796875,560,36.796875,560,24.53125,560C12.265625,560,12.265625,560,0,560Z"><title>other_renewables</title></path><path fill="#0e402d" d="M0,560C12.265625,560,12.265625,560,24.53125,560C36.796875,560,36.796875,560,49.0625,560C61.328125,560,61.328125,560,73.59375,560C85.859375,560,85.859375,560,98.125,560C110.390625,560,110.390625,560,122.65625,560C134.921875,560,134.921875,560,147.1875,560C159.453125,560,159.453125,560,171.71875,560C183.984375,560,183.984375,560,196.25,560C208.515625,560,208.515625,559,220.78125,559C233.046875,559,233.046875,549.0683802367956,245.3125,549.0683802367956C257.578125,549.0683802367956,257.578125,549.1202609358647,269.84375,549.1202609358647C282.109375,549.1202609358647,282.109375,548.4439535947711,294.375,548.4439535947711C306.640625,548.4439535947711,306.640625,547.9544168088948,318.90625,547.9544168088948C331.171875,547.9544168088948,331.171875,547.1580931935799,343.4375,547.1580931935799C355.703125,547.1580931935799,355.703125,546.257297239648,367.96875,546.257297239648C380.234375,546.257297239648,380.234375,545.4526529793442,392.5,545.4526529793442C404.765625,545.4526529793442,404.765625,544.275370347463,417.03125,544.275370347463C429.296875,544.275370347463,429.296875,542.606687936083,441.5625,542.606687936083C453.828125,542.606687936083,453.828125,540.2750714128533,466.09375,540.2750714128533C478.359375,540.2750714128533,478.359375,547.7479431323541,490.625,547.7479431323541C502.890625,547.7479431323541,502.890625,546.8572012363069,515.15625,546.8572012363069C527.421875,546.8572012363069,527.421875,545.6703861941497,539.6875,545.6703861941497C551.953125,545.6703861941497,551.953125,544.4532827956216,564.21875,544.4532827956216C576.484375,544.4532827956216,576.484375,542.5115525012446,588.75,542.5115525012446C601.015625,542.5115525012446,601.015625,540.5235580062641,613.28125,540.5235580062641C625.546875,540.5235580062641,625.546875,539.2068547512409,637.8125,539.2068547512409C650.078125,539.2068547512409,650.078125,536.7221058198905,662.34375,536.7221058198905C674.609375,536.7221058198905,674.609375,546.5622772624196,686.875,546.5622772624196C699.140625,546.5622772624196,699.140625,546.1277076193486,711.40625,546.1277076193486C723.671875,546.1277076193486,723.671875,545.5014984984571,735.9375,545.5014984984571C748.203125,545.5014984984571,748.203125,545.1221803403782,760.46875,545.1221803403782C772.734375,545.1221803403782,772.734375,545.1285479636167,785,545.1285479636167L785,557.2200941373341C772.734375,557.2200941373341,772.734375,557.2624833711167,760.46875,557.2624833711167C748.203125,557.2624833711167,748.203125,557.1757367970588,735.9375,557.1757367970588C723.671875,557.1757367970588,723.671875,557.2399918240511,711.40625,557.2399918240511C699.140625,557.2399918240511,699.140625,557.248252152697,686.875,557.248252152697C674.609375,557.248252152697,674.609375,547.1997396204154,662.34375,547.1997396204154C650.078125,547.1997396204154,650.078125,549.3442942626223,637.8125,549.3442942626223C625.546875,549.3442942626223,625.546875,550.7609493070036,613.28125,550.7609493070036C601.015625,550.7609493070036,601.015625,552.0416174382779,588.75,552.0416174382779C576.484375,552.0416174382779,576.484375,553.4466316653048,564.21875,553.4466316653048C551.953125,553.4466316653048,551.953125,554.1867363183293,539.6875,554.1867363183293C527.421875,554.1867363183293,527.421875,554.9079650320683,515.15625,554.9079650320683C502.890625,554.9079650320683,502.890625,555.582445121902,490.625,555.582445121902C478.359375,555.582445121902,478.359375,547.5504569888163,466.09375,547.5504569888163C453.828125,547.5504569888163,453.828125,549.2989151413915,441.5625,549.2989151413915C429.296875,549.2989151413915,429.296875,550.6697702600743,417.03125,550.6697702600743C404.765625,550.6697702600743,404.765625,551.5425921102703,392.5,551.5425921102703C380.234375,551.5425921102703,380.234375,552.2309105873011,367.96875,552.2309105873011C355.703125,552.2309105873011,355.703125,552.6543119318361,343.4375,552.6543119318361C331.171875,552.6543119318361,331.171875,553.2012175330156,318.90625,553.2012175330156C306.640625,553.2012175330156,306.640625,553.5115068340227,294.375,553.5115068340227C282.109375,553.5115068340227,282.109375,553.9142350869541,269.84375,553.9142350869541C257.578125,553.9142350869541,257.578125,554.1229771578294,245.3125,554.1229771578294C233.046875,554.1229771578294,233.046875,559,220.78125,559C208.515625,559,208.515625,560,196.25,560C183.984375,560,183.984375,560,171.71875,560C159.453125,560,159.453125,560,147.1875,560C134.921875,560,134.921875,560,122.65625,560C110.390625,560,110.390625,560,98.125,560C85.859375,560,85.859375,560,73.59375,560C61.328125,560,61.328125,560,49.0625,560C36.796875,560,36.796875,560,24.53125,560C12.265625,560,12.265625,560,0,560Z"><title>bioenergy</title></path></g><g id="xAxis" transform="translate(0,560)" fill="none" font-size="10" font-family="sans-serif" text-anchor="middle"><path class="domain" stroke="currentColor" d="M0.5,0.5H785.5"/><g class="tick" opacity="1" transform="translate(0.5,0)"><line stroke="currentColor" y2="6"/><text fill="currentColor" y="9" dy="0.71em">1,990</text></g><g class="tick" opacity="1" transform="translate(123.15625,0)"><line stroke="currentColor" y2="6"/><text fill="currentColor" y="9" dy="0.71em">1,995</text></g><g class="tick" opacity="1" transform="translate(245.8125,0)"><line stroke="currentColor" y2="6"/><text fill="currentColor" y="9" dy="0.71em">2,000</text></g><g class="tick" opacity="1" transform="translate(368.46875,0)"><line stroke="currentColor" y2="6"/><text fill="currentColor" y="9" dy="0.71em">2,005</text></g><g class="tick" opacity="1" transform="translate(491.125,0)"><line stroke="currentColor" y2="6"/><text fill="currentColor" y="9" dy="0.71em">2,010</text></g><g class="tick" opacity="1" transform="translate(613.78125,0)"><line stroke="currentColor" y2="6"/><text fill="currentColor" y="9" dy="0.71em">2,015</text></g><g class="tick" opacity="1" transform="translate(736.4375,0)"><line stroke="currentColor" y2="6"/><text fill="currentColor" y="9" dy="0.71em">2,020</text></g></g><text style="font-family: Arial, sans-serif; font-size: 12px; fill: rgb(123, 123, 123); font-weight: bold;" y="556" x="785" text-anchor="end">Year</text><text style="font-family: Arial, sans-serif; font-size: 12px; fill: rgb(123, 123, 123); font-weight: bold;" x="4" text-anchor="start" dominant-baseline="hanging">energy_twh</text><g id="labels"><text x="417.03125" y="155.2095538416585" text-anchor="middle" alignment-baseline="middle" style="font-family: Arial, sans-serif; font-size: 10px; fill: black; font-weight: bold; stroke-width: 2px; paint-order: stroke; stroke: white; stroke-linecap: round; stroke-linejoin: round;">coal</text><text x="73.59375" y="293.25714202532185" text-anchor="middle" alignment-baseline="middle" style="font-family: Arial, sans-serif; font-size: 10px; fill: black; font-weight: bold; stroke-width: 2px; paint-order: stroke; stroke: white; stroke-linecap: round; stroke-linejoin: round;">hydro</text><text x="147.1875" y="388.788509808628" text-anchor="middle" alignment-baseline="middle" style="font-family: Arial, sans-serif; font-size: 10px; fill: black; font-weight: bold; stroke-width: 2px; paint-order: stroke; stroke: white; stroke-linecap: round; stroke-linejoin: round;">nuclear</text><text x="711.40625" y="297.46644471521375" text-anchor="middle" alignment-baseline="middle" style="font-family: Arial, sans-serif; font-size: 10px; fill: black; font-weight: bold; stroke-width: 2px; paint-order: stroke; stroke: white; stroke-linecap: round; stroke-linejoin: round;">gas</text><text x="0" y="530.3329761601171" text-anchor="start" alignment-baseline="middle" style="font-family: Arial, sans-serif; font-size: 10px; fill: black; font-weight: bold; stroke-width: 2px; paint-order: stroke; stroke: white; stroke-linecap: round; stroke-linejoin: round;">oil</text><text x="785" y="488.24029519444804" text-anchor="end" alignment-baseline="middle" style="font-family: Arial, sans-serif; font-size: 10px; fill: black; font-weight: bold; stroke-width: 2px; paint-order: stroke; stroke: white; stroke-linecap: round; stroke-linejoin: round;">wind</text><text x="785" y="518.8318695384936" text-anchor="end" alignment-baseline="middle" style="font-family: Arial, sans-serif; font-size: 10px; fill: black; font-weight: bold; stroke-width: 2px; paint-order: stroke; stroke: white; stroke-linecap: round; stroke-linejoin: round;">solar</text><text x="735.9375" y="559.0878683985294" text-anchor="middle" alignment-baseline="middle" style="font-family: Arial, sans-serif; font-size: 10px; fill: black; font-weight: bold; stroke-width: 2px; paint-order: stroke; stroke: white; stroke-linecap: round; stroke-linejoin: round;">other_renewables</text><text x="760.46875" y="552.1923318557475" text-anchor="middle" alignment-baseline="middle" style="font-family: Arial, sans-serif; font-size: 10px; fill: black; font-weight: bold; stroke-width: 2px; paint-order: stroke; stroke: white; stroke-linecap: round; stroke-linejoin: round;">bioenergy</text></g></g><text x="4" y="4" style="font-family: Arial, sans-serif; font-size: 12px; fill: black; font-weight: bold; dominant-baseline: hanging;"/></g></g></svg>