<svg xmlns="http://www.w3.org/2000/svg" width="805" height="600"><rect width="805" height="600" x="0" y="0" fill="#CCE6E5" id="backgorund"/><g id="viz"><g transform="translate(0,0)"><g transform="translate(10,20)"><g><path fill="#8b572a" d="M0,44.90909090909099C12.25722963723477,44.90909090909099,12.25722963723477,44.90909090909093,24.51445927446954,44.90909090909093C36.77168891170431,44.90909090909093,36.77168891170431,44.90909090909093,49.02891854893908,44.90909090909093C61.31972963723477,44.90909090909093,61.31972963723477,44.90909090909093,73.61054072553047,44.90909090909093C85.86777036276524,44.90909090909093,85.86777036276524,44.90909090909093,98.125,44.90909090909093C110.38222963723477,44.90909090909093,110.38222963723477,44.90909090909099,122.63945927446954,44.90909090909099C134.8966889117043,44.90909090909099,134.8966889117043,44.90909090909105,147.15391854893906,44.90909090909105C159.44472963723476,44.90909090909105,159.44472963723476,44.90909090909093,171.73554072553046,44.90909090909093C183.9927703627652,44.90909090909093,183.9927703627652,44.90909090909105,196.25,44.90909090909105C208.50722963723476,44.90909090909105,208.50722963723476,42.90909090909093,220.76445927446952,42.90909090909093C233.0216889117043,42.90909090909093,233.0216889117043,42.90909090909105,245.2789185489391,42.90909090909105C257.5697296372348,42.90909090909105,257.5697296372348,42.90909090909093,269.8605407255305,42.90909090909093C282.1177703627652,42.90909090909093,282.1177703627652,42.90909090909093,294.375,42.90909090909093C306.6322296372348,42.90909090909093,306.6322296372348,42.909090909090864,318.8894592744695,42.909090909090864C331.1466889117043,42.909090909090864,331.1466889117043,42.909090909090864,343.4039185489391,42.909090909090864C355.6947296372348,42.909090909090864,355.6947296372348,42.90909090909093,367.9855407255305,42.90909090909093C380.2427703627652,42.90909090909093,380.2427703627652,42.90909090909093,392.5,42.90909090909093C404.7572296372348,42.90909090909093,404.7572296372348,42.90909090909093,417.0144592744696,42.90909090909093C429.2716889117043,42.90909090909093,429.2716889117043,42.90909090909093,441.52891854893903,42.90909090909093C453.81972963723473,42.90909090909093,453.81972963723473,42.90909090909093,466.1105407255304,42.90909090909093C478.3677703627652,42.90909090909093,478.3677703627652,42.90909090909105,490.625,42.90909090909105C502.8822296372348,42.90909090909105,502.8822296372348,42.90909090909099,515.1394592744696,42.90909090909099C527.3966889117044,42.90909090909099,527.3966889117044,42.90909090909099,539.653918548939,42.90909090909099C551.9447296372348,42.90909090909099,551.9447296372348,42.90909090909105,564.2355407255304,42.90909090909105C576.4927703627652,42.90909090909105,576.4927703627652,42.90909090909093,588.75,42.90909090909093C601.0072296372348,42.90909090909093,601.0072296372348,42.909090909090864,613.2644592744696,42.909090909090864C625.5216889117044,42.909090909090864,625.5216889117044,42.90909090909093,637.778918548939,42.90909090909093C650.0697296372348,42.90909090909093,650.0697296372348,42.90909090909093,662.3605407255304,42.90909090909093C674.6177703627652,42.90909090909093,674.6177703627652,42.90909090909093,686.875,42.90909090909093C699.1322296372348,42.90909090909093,699.1322296372348,42.909090909090864,711.3894592744696,42.909090909090864C723.6466889117044,42.909090909090864,723.6466889117044,42.90909090909099,735.903918548939,42.90909090909099C748.1947296372348,42.90909090909099,748.1947296372348,42.90909090909099,760.4855407255304,42.90909090909099C772.7427703627652,42.90909090909099,772.7427703627652,42.90909090909105,785,42.90909090909105L785,224.76696612192998C772.7427703627652,224.76696612192998,772.7427703627652,227.3016714256769,760.4855407255304,227.3016714256769C748.1947296372348,227.3016714256769,748.1947296372348,222.9504621772846,735.903918548939,222.9504621772846C723.6466889117044,222.9504621772846,723.6466889117044,229.8372132426926,711.3894592744696,229.8372132426926C699.1322296372348,229.8372132426926,699.1322296372348,236.5803295678613,686.875,236.5803295678613C674.6177703627652,236.5803295678613,674.6177703627652,236.5442340161517,662.3605407255304,236.5442340161517C650.0697296372348,236.5442340161517,650.0697296372348,236.25847957641105,637.778918548939,236.25847957641105C625.5216889117044,236.25847957641105,625.5216889117044,240.01485999060327,613.2644592744696,240.01485999060327C601.0072296372348,240.01485999060327,601.0072296372348,249.29356125859027,588.75,249.29356125859027C576.4927703627652,249.29356125859027,576.4927703627652,250.6397808548001,564.2355407255304,250.6397808548001C551.9447296372348,250.6397808548001,551.9447296372348,246.2670031700244,539.653918548939,246.2670031700244C527.3966889117044,246.2670031700244,527.3966889117044,250.1302120564058,515.1394592744696,250.1302120564058C502.8822296372348,250.1302120564058,502.8822296372348,246.14125629247764,490.625,246.14125629247764C478.3677703627652,246.14125629247764,478.3677703627652,246.35755154470888,466.1105407255304,246.35755154470888C453.81972963723473,246.35755154470888,453.81972963723473,248.19168443382432,441.52891854893903,248.19168443382432C429.2716889117043,248.19168443382432,429.2716889117043,251.51001677422602,417.0144592744696,251.51001677422602C404.7572296372348,251.51001677422602,404.7572296372348,247.96166305515547,392.5,247.96166305515547C380.2427703627652,247.96166305515547,380.2427703627652,244.6904934173592,367.9855407255305,244.6904934173592C355.6947296372348,244.6904934173592,355.6947296372348,242.386329358923,343.4039185489391,242.386329358923C331.1466889117043,242.386329358923,331.1466889117043,244.72577618580678,318.8894592744695,244.72577618580678C306.6322296372348,244.72577618580678,306.6322296372348,238.87174031395605,294.375,238.87174031395605C282.1177703627652,238.87174031395605,282.1177703627652,237.25231387800366,269.8605407255305,237.25231387800366C257.5697296372348,237.25231387800366,257.5697296372348,237.37828931489284,245.2789185489391,237.37828931489284C233.0216889117043,237.37828931489284,233.0216889117043,238.65280920744374,220.76445927446952,238.65280920744374C208.50722963723476,238.65280920744374,208.50722963723476,241.89347339972988,196.25,241.89347339972988C183.9927703627652,241.89347339972988,183.9927703627652,242.87364018653616,171.73554072553046,242.87364018653616C159.44472963723476,242.87364018653616,159.44472963723476,243.11898957369064,147.15391854893906,243.11898957369064C134.8966889117043,243.11898957369064,134.8966889117043,239.98124851961396,122.63945927446954,239.98124851961396C110.38222963723477,239.98124851961396,110.38222963723477,240.86607470438173,98.125,240.86607470438173C85.86777036276524,240.86607470438173,85.86777036276524,239.15713357486692,73.61054072553047,239.15713357486692C61.31972963723477,239.15713357486692,61.31972963723477,240.00938977732426,49.02891854893908,240.00938977732426C36.77168891170431,240.00938977732426,36.77168891170431,237.7278713178484,24.51445927446954,237.7278713178484C12.25722963723477,237.7278713178484,12.25722963723477,237.6964248471966,0,237.6964248471966Z"><title>coal</title></path><path fill="#4a90e2" d="M0,238.6964248471966C12.25722963723477,238.6964248471966,12.25722963723477,238.7278713178484,24.51445927446954,238.7278713178484C36.77168891170431,238.7278713178484,36.77168891170431,241.00938977732426,49.02891854893908,241.00938977732426C61.31972963723477,241.00938977732426,61.31972963723477,240.15713357486692,73.61054072553047,240.15713357486692C85.86777036276524,240.15713357486692,85.86777036276524,241.86607470438173,98.125,241.86607470438173C110.38222963723477,241.86607470438173,110.38222963723477,240.98124851961396,122.63945927446954,240.98124851961396C134.8966889117043,240.98124851961396,134.8966889117043,244.11898957369064,147.15391854893906,244.11898957369064C159.44472963723476,244.11898957369064,159.44472963723476,243.87364018653616,171.73554072553046,243.87364018653616C183.9927703627652,243.87364018653616,183.9927703627652,242.89347339972988,196.25,242.89347339972988C208.50722963723476,242.89347339972988,208.50722963723476,331.0618347867453,220.76445927446952,331.0618347867453C233.0216889117043,331.0618347867453,233.0216889117043,330.5449919785508,245.2789185489391,330.5449919785508C257.5697296372348,330.5449919785508,257.5697296372348,421.20256000469016,269.8605407255305,421.20256000469016C282.1177703627652,421.20256000469016,282.1177703627652,424.2295575916052,294.375,424.2295575916052C306.6322296372348,424.2295575916052,306.6322296372348,345.64910890218414,318.8894592744695,345.64910890218414C331.1466889117043,345.64910890218414,331.1466889117043,345.8936326077436,343.4039185489391,345.8936326077436C355.6947296372348,345.8936326077436,355.6947296372348,349.2882483994389,367.9855407255305,349.2882483994389C380.2427703627652,349.2882483994389,380.2427703627652,354.48448782588997,392.5,354.48448782588997C404.7572296372348,354.48448782588997,404.7572296372348,361.5860001948024,417.0144592744696,361.5860001948024C429.2716889117043,361.5860001948024,429.2716889117043,359.22159300147547,441.52891854893903,359.22159300147547C453.81972963723473,359.22159300147547,453.81972963723473,358.9059358005827,466.1105407255304,358.9059358005827C478.3677703627652,358.9059358005827,478.3677703627652,362.448590313959,490.625,362.448590313959C502.8822296372348,362.448590313959,502.8822296372348,364.20801604456636,515.1394592744696,364.20801604456636C527.3966889117044,364.20801604456636,527.3966889117044,364.062452025944,539.653918548939,364.062452025944C551.9447296372348,364.062452025944,551.9447296372348,362.89200613222016,564.2355407255304,362.89200613222016C576.4927703627652,362.89200613222016,576.4927703627652,362.05570695537017,588.75,362.05570695537017C601.0072296372348,362.05570695537017,601.0072296372348,358.6037261555538,613.2644592744696,358.6037261555538C625.5216889117044,358.6037261555538,625.5216889117044,357.0545098907795,637.778918548939,357.0545098907795C650.0697296372348,357.0545098907795,650.0697296372348,356.36253788726384,662.3605407255304,356.36253788726384C674.6177703627652,356.36253788726384,674.6177703627652,356.2616308970054,686.875,356.2616308970054C699.1322296372348,356.2616308970054,699.1322296372348,351.0956761877348,711.3894592744696,351.0956761877348C723.6466889117044,351.0956761877348,723.6466889117044,343.76141549229493,735.903918548939,343.76141549229493C748.1947296372348,343.76141549229493,748.1947296372348,345.00198926057965,760.4855407255304,345.00198926057965C772.7427703627652,345.00198926057965,772.7427703627652,339.3621620739686,785,339.3621620739686L785,416.57517080014196C772.7427703627652,416.57517080014196,772.7427703627652,422.63368354962375,760.4855407255304,422.63368354962375C748.1947296372348,422.63368354962375,748.1947296372348,427.8662263492238,735.903918548939,427.8662263492238C723.6466889117044,427.8662263492238,723.6466889117044,432.58144802979695,711.3894592744696,432.58144802979695C699.1322296372348,432.58144802979695,699.1322296372348,437.9370210064481,686.875,437.9370210064481C674.6177703627652,437.9370210064481,674.6177703627652,438.8288207652719,662.3605407255304,438.8288207652719C650.0697296372348,438.8288207652719,650.0697296372348,440.8023291123439,637.778918548939,440.8023291123439C625.5216889117044,440.8023291123439,625.5216889117044,441.87389540987544,613.2644592744696,441.87389540987544C601.0072296372348,441.87389540987544,601.0072296372348,446.07446518864487,588.75,446.07446518864487C576.4927703627652,446.07446518864487,576.4927703627652,447.1936031711597,564.2355407255304,447.1936031711597C551.9447296372348,447.1936031711597,551.9447296372348,447.7636587281218,539.653918548939,447.7636587281218C527.3966889117044,447.7636587281218,527.3966889117044,446.0051774053972,515.1394592744696,446.0051774053972C502.8822296372348,446.0051774053972,502.8822296372348,445.4164575288863,490.625,445.4164575288863C478.3677703627652,445.4164575288863,478.3677703627652,442.95609314936206,466.1105407255304,442.95609314936206C453.81972963723473,442.95609314936206,453.81972963723473,442.8891930488997,441.52891854893903,442.8891930488997C429.2716889117043,442.8891930488997,429.2716889117043,441.69825291257166,417.0144592744696,441.69825291257166C404.7572296372348,441.69825291257166,404.7572296372348,437.2104789539158,392.5,437.2104789539158C380.2427703627652,437.2104789539158,380.2427703627652,432.25997242421755,367.9855407255305,432.25997242421755C355.6947296372348,432.25997242421755,355.6947296372348,429.18841955417093,343.4039185489391,429.18841955417093C331.1466889117043,429.18841955417093,331.1466889117043,426.96592700951004,318.8894592744695,426.96592700951004C306.6322296372348,426.96592700951004,306.6322296372348,508.4047847230561,294.375,508.4047847230561C282.1177703627652,508.4047847230561,282.1177703627652,506.9996219187801,269.8605407255305,506.9996219187801C257.5697296372348,506.9996219187801,257.5697296372348,419.67999490435625,245.2789185489391,419.67999490435625C233.0216889117043,419.67999490435625,233.0216889117043,421.4673840986018,220.76445927446952,421.4673840986018C208.50722963723476,421.4673840986018,208.50722963723476,335.1477523866847,196.25,335.1477523866847C183.9927703627652,335.1477523866847,183.9927703627652,337.8494420624868,171.73554072553046,337.8494420624868C159.44472963723476,337.8494420624868,159.44472963723476,338.6137424064496,147.15391854893906,338.6137424064496C134.8966889117043,338.6137424064496,134.8966889117043,337.1322149079601,122.63945927446954,337.1322149079601C110.38222963723477,337.1322149079601,110.38222963723477,336.24945448644934,98.125,336.24945448644934C85.86777036276524,336.24945448644934,85.86777036276524,336.3571504757768,73.61054072553047,336.3571504757768C61.31972963723477,336.3571504757768,61.31972963723477,333.67149456099065,49.02891854893908,333.67149456099065C36.77168891170431,333.67149456099065,36.77168891170431,332.18256092394756,24.51445927446954,332.18256092394756C12.25722963723477,332.18256092394756,12.25722963723477,332.00968789785486,0,332.00968789785486Z"><title>hydro</title></path><path fill="#0e402d" d="M0,333.00968789785486C12.25722963723477,333.00968789785486,12.25722963723477,333.18256092394756,24.51445927446954,333.18256092394756C36.77168891170431,333.18256092394756,36.77168891170431,334.67149456099065,49.02891854893908,334.67149456099065C61.31972963723477,334.67149456099065,61.31972963723477,337.3571504757768,73.61054072553047,337.3571504757768C85.86777036276524,337.3571504757768,85.86777036276524,337.24945448644934,98.125,337.24945448644934C110.38222963723477,337.24945448644934,110.38222963723477,338.1322149079601,122.63945927446954,338.1322149079601C134.8966889117043,338.1322149079601,134.8966889117043,339.6137424064496,147.15391854893906,339.6137424064496C159.44472963723476,339.6137424064496,159.44472963723476,338.8494420624868,171.73554072553046,338.8494420624868C183.9927703627652,338.8494420624868,183.9927703627652,336.1477523866847,196.25,336.1477523866847C208.50722963723476,336.1477523866847,208.50722963723476,422.4673840986018,220.76445927446952,422.4673840986018C233.0216889117043,422.4673840986018,233.0216889117043,420.67999490435625,245.2789185489391,420.67999490435625C257.5697296372348,420.67999490435625,257.5697296372348,333.9810420983269,269.8605407255305,333.9810420983269C282.1177703627652,333.9810420983269,282.1177703627652,339.03815156596096,294.375,339.03815156596096C306.6322296372348,339.03815156596096,306.6322296372348,427.96592700951004,318.8894592744695,427.96592700951004C331.1466889117043,427.96592700951004,331.1466889117043,430.18841955417093,343.4039185489391,430.18841955417093C355.6947296372348,430.18841955417093,355.6947296372348,433.25997242421755,367.9855407255305,433.25997242421755C380.2427703627652,433.25997242421755,380.2427703627652,438.2104789539158,392.5,438.2104789539158C404.7572296372348,438.2104789539158,404.7572296372348,442.69825291257166,417.0144592744696,442.69825291257166C429.2716889117043,442.69825291257166,429.2716889117043,443.8891930488997,441.52891854893903,443.8891930488997C453.81972963723473,443.8891930488997,453.81972963723473,443.95609314936206,466.1105407255304,443.95609314936206C478.3677703627652,443.95609314936206,478.3677703627652,446.4164575288863,490.625,446.4164575288863C502.8822296372348,446.4164575288863,502.8822296372348,447.0051774053972,515.1394592744696,447.0051774053972C527.3966889117044,447.0051774053972,527.3966889117044,448.7636587281218,539.653918548939,448.7636587281218C551.9447296372348,448.7636587281218,551.9447296372348,448.1936031711597,564.2355407255304,448.1936031711597C576.4927703627652,448.1936031711597,576.4927703627652,447.07446518864487,588.75,447.07446518864487C601.0072296372348,447.07446518864487,601.0072296372348,442.87389540987544,613.2644592744696,442.87389540987544C625.5216889117044,442.87389540987544,625.5216889117044,441.8023291123439,637.778918548939,441.8023291123439C650.0697296372348,441.8023291123439,650.0697296372348,439.8288207652719,662.3605407255304,439.8288207652719C674.6177703627652,439.8288207652719,674.6177703627652,438.9370210064481,686.875,438.9370210064481C699.1322296372348,438.9370210064481,699.1322296372348,433.58144802979695,711.3894592744696,433.58144802979695C723.6466889117044,433.58144802979695,723.6466889117044,428.8662263492238,735.903918548939,428.8662263492238C748.1947296372348,428.8662263492238,748.1947296372348,423.63368354962375,760.4855407255304,423.63368354962375C772.7427703627652,423.63368354962375,772.7427703627652,417.57517080014196,785,417.57517080014196L785,464.1525269039382C772.7427703627652,464.1525269039382,772.7427703627652,473.7615869823687,760.4855407255304,473.7615869823687C748.1947296372348,473.7615869823687,748.1947296372348,479.91091643160894,735.903918548939,479.91091643160894C723.6466889117044,479.91091643160894,723.6466889117044,486.1804943483821,711.3894592744696,486.1804943483821C699.1322296372348,486.1804943483821,699.1322296372348,490.18591656552564,686.875,490.18591656552564C674.6177703627652,490.18591656552564,674.6177703627652,492.0312658923087,662.3605407255304,492.0312658923087C650.0697296372348,492.0312658923087,650.0697296372348,495.0382931652497,637.778918548939,495.0382931652497C625.5216889117044,495.0382931652497,625.5216889117044,496.71815413859065,613.2644592744696,496.71815413859065C601.0072296372348,496.71815413859065,601.0072296372348,500.8181456452374,588.75,500.8181456452374C576.4927703627652,500.8181456452374,576.4927703627652,502.1742311876317,564.2355407255304,502.1742311876317C551.9447296372348,502.1742311876317,551.9447296372348,503.9489737493675,539.653918548939,503.9489737493675C527.3966889117044,503.9489737493675,527.3966889117044,507.55165136116807,515.1394592744696,507.55165136116807C502.8822296372348,507.55165136116807,502.8822296372348,511.73493411258994,490.625,511.73493411258994C478.3677703627652,511.73493411258994,478.3677703627652,512.1164752758048,466.1105407255304,512.1164752758048C453.81972963723473,512.1164752758048,453.81972963723473,512.6665616698089,441.52891854893903,512.6665616698089C429.2716889117043,512.6665616698089,429.2716889117043,512.8362516579095,417.0144592744696,512.8362516579095C404.7572296372348,512.8362516579095,404.7572296372348,513.2162815864506,392.5,513.2162815864506C380.2427703627652,513.2162815864506,380.2427703627652,510.2643880089255,367.9855407255305,510.2643880089255C355.6947296372348,510.2643880089255,355.6947296372348,510.0890963488064,343.4039185489391,510.0890963488064C331.1466889117043,510.0890963488064,331.1466889117043,508.51342682830136,318.8894592744695,508.51342682830136C306.6322296372348,508.51342682830136,306.6322296372348,423.2295575916052,294.375,423.2295575916052C282.1177703627652,423.2295575916052,282.1177703627652,420.20256000469016,269.8605407255305,420.20256000469016C257.5697296372348,420.20256000469016,257.5697296372348,505.9409969743705,245.2789185489391,505.9409969743705C233.0216889117043,505.9409969743705,233.0216889117043,510.19814028240523,220.76445927446952,510.19814028240523C208.50722963723476,510.19814028240523,208.50722963723476,423.0433979175301,196.25,423.0433979175301C183.9927703627652,423.0433979175301,183.9927703627652,426.5404684785426,171.73554072553046,426.5404684785426C159.44472963723476,426.5404684785426,159.44472963723476,429.9632772108065,147.15391854893906,429.9632772108065C134.8966889117043,429.9632772108065,134.8966889117043,428.04431040073007,122.63945927446954,428.04431040073007C110.38222963723477,428.04431040073007,110.38222963723477,426.4163906406054,98.125,426.4163906406054C85.86777036276524,426.4163906406054,85.86777036276524,427.1274896568824,73.61054072553047,427.1274896568824C61.31972963723477,427.1274896568824,61.31972963723477,423.29573944288404,49.02891854893908,423.29573944288404C36.77168891170431,423.29573944288404,36.77168891170431,421.8817071542781,24.51445927446954,421.8817071542781C12.25722963723477,421.8817071542781,12.25722963723477,419.4824835598564,0,419.4824835598564Z"><title>nuclear</title></path><path fill="#d0021b" d="M0,420.4824835598564C12.25722963723477,420.4824835598564,12.25722963723477,422.8817071542781,24.51445927446954,422.8817071542781C36.77168891170431,422.8817071542781,36.77168891170431,424.29573944288404,49.02891854893908,424.29573944288404C61.31972963723477,424.29573944288404,61.31972963723477,428.1274896568824,73.61054072553047,428.1274896568824C85.86777036276524,428.1274896568824,85.86777036276524,427.4163906406054,98.125,427.4163906406054C110.38222963723477,427.4163906406054,110.38222963723477,429.04431040073007,122.63945927446954,429.04431040073007C134.8966889117043,429.04431040073007,134.8966889117043,430.9632772108065,147.15391854893906,430.9632772108065C159.44472963723476,430.9632772108065,159.44472963723476,427.5404684785426,171.73554072553046,427.5404684785426C183.9927703627652,427.5404684785426,183.9927703627652,424.0433979175301,196.25,424.0433979175301C208.50722963723476,424.0433979175301,208.50722963723476,239.65280920744374,220.76445927446952,239.65280920744374C233.0216889117043,239.65280920744374,233.0216889117043,238.37828931489284,245.2789185489391,238.37828931489284C257.5697296372348,238.37828931489284,257.5697296372348,238.25231387800366,269.8605407255305,238.25231387800366C282.1177703627652,238.25231387800366,282.1177703627652,239.87174031395605,294.375,239.87174031395605C306.6322296372348,239.87174031395605,306.6322296372348,245.72577618580678,318.8894592744695,245.72577618580678C331.1466889117043,245.72577618580678,331.1466889117043,243.386329358923,343.4039185489391,243.386329358923C355.6947296372348,243.386329358923,355.6947296372348,245.6904934173592,367.9855407255305,245.6904934173592C380.2427703627652,245.6904934173592,380.2427703627652,248.96166305515547,392.5,248.96166305515547C404.7572296372348,248.96166305515547,404.7572296372348,252.51001677422602,417.0144592744696,252.51001677422602C429.2716889117043,252.51001677422602,429.2716889117043,249.19168443382432,441.52891854893903,249.19168443382432C453.81972963723473,249.19168443382432,453.81972963723473,247.35755154470888,466.1105407255304,247.35755154470888C478.3677703627652,247.35755154470888,478.3677703627652,247.14125629247764,490.625,247.14125629247764C502.8822296372348,247.14125629247764,502.8822296372348,251.1302120564058,515.1394592744696,251.1302120564058C527.3966889117044,251.1302120564058,527.3966889117044,247.2670031700244,539.653918548939,247.2670031700244C551.9447296372348,247.2670031700244,551.9447296372348,251.6397808548001,564.2355407255304,251.6397808548001C576.4927703627652,251.6397808548001,576.4927703627652,250.29356125859027,588.75,250.29356125859027C601.0072296372348,250.29356125859027,601.0072296372348,241.01485999060327,613.2644592744696,241.01485999060327C625.5216889117044,241.01485999060327,625.5216889117044,237.25847957641105,637.778918548939,237.25847957641105C650.0697296372348,237.25847957641105,650.0697296372348,237.5442340161517,662.3605407255304,237.5442340161517C674.6177703627652,237.5442340161517,674.6177703627652,237.5803295678613,686.875,237.5803295678613C699.1322296372348,237.5803295678613,699.1322296372348,230.8372132426926,711.3894592744696,230.8372132426926C723.6466889117044,230.8372132426926,723.6466889117044,223.9504621772846,735.903918548939,223.9504621772846C748.1947296372348,223.9504621772846,748.1947296372348,228.3016714256769,760.4855407255304,228.3016714256769C772.7427703627652,228.3016714256769,772.7427703627652,225.76696612192998,785,225.76696612192998L785,338.3621620739686C772.7427703627652,338.3621620739686,772.7427703627652,344.00198926057965,760.4855407255304,344.00198926057965C748.1947296372348,344.00198926057965,748.1947296372348,342.76141549229493,735.903918548939,342.76141549229493C723.6466889117044,342.76141549229493,723.6466889117044,350.0956761877348,711.3894592744696,350.0956761877348C699.1322296372348,350.0956761877348,699.1322296372348,355.2616308970054,686.875,355.2616308970054C674.6177703627652,355.2616308970054,674.6177703627652,355.36253788726384,662.3605407255304,355.36253788726384C650.0697296372348,355.36253788726384,650.0697296372348,356.0545098907795,637.778918548939,356.0545098907795C625.5216889117044,356.0545098907795,625.5216889117044,357.6037261555538,613.2644592744696,357.6037261555538C601.0072296372348,357.6037261555538,601.0072296372348,361.05570695537017,588.75,361.05570695537017C576.4927703627652,361.05570695537017,576.4927703627652,361.89200613222016,564.2355407255304,361.89200613222016C551.9447296372348,361.89200613222016,551.9447296372348,363.062452025944,539.653918548939,363.062452025944C527.3966889117044,363.062452025944,527.3966889117044,363.20801604456636,515.1394592744696,363.20801604456636C502.8822296372348,363.20801604456636,502.8822296372348,361.448590313959,490.625,361.448590313959C478.3677703627652,361.448590313959,478.3677703627652,357.9059358005827,466.1105407255304,357.9059358005827C453.81972963723473,357.9059358005827,453.81972963723473,358.22159300147547,441.52891854893903,358.22159300147547C429.2716889117043,358.22159300147547,429.2716889117043,360.5860001948024,417.0144592744696,360.5860001948024C404.7572296372348,360.5860001948024,404.7572296372348,353.48448782588997,392.5,353.48448782588997C380.2427703627652,353.48448782588997,380.2427703627652,348.2882483994389,367.9855407255305,348.2882483994389C355.6947296372348,348.2882483994389,355.6947296372348,344.8936326077436,343.4039185489391,344.8936326077436C331.1466889117043,344.8936326077436,331.1466889117043,344.64910890218414,318.8894592744695,344.64910890218414C306.6322296372348,344.64910890218414,306.6322296372348,338.03815156596096,294.375,338.03815156596096C282.1177703627652,338.03815156596096,282.1177703627652,332.9810420983269,269.8605407255305,332.9810420983269C257.5697296372348,332.9810420983269,257.5697296372348,329.5449919785508,245.2789185489391,329.5449919785508C233.0216889117043,329.5449919785508,233.0216889117043,330.0618347867453,220.76445927446952,330.0618347867453C208.50722963723476,330.0618347867453,208.50722963723476,510.12958833459106,196.25,510.12958833459106C183.9927703627652,510.12958833459106,183.9927703627652,510.8653071958404,171.73554072553046,510.8653071958404C159.44472963723476,510.8653071958404,159.44472963723476,509.86166363639904,147.15391854893906,509.86166363639904C134.8966889117043,509.86166363639904,134.8966889117043,507.87877006405387,122.63945927446954,507.87877006405387C110.38222963723477,507.87877006405387,110.38222963723477,504.53091060986714,98.125,504.53091060986714C85.86777036276524,504.53091060986714,85.86777036276524,504.7032527845478,73.61054072553047,504.7032527845478C61.31972963723477,504.7032527845478,61.31972963723477,501.05279764502615,49.02891854893908,501.05279764502615C36.77168891170431,501.05279764502615,36.77168891170431,499.68840265290567,24.51445927446954,499.68840265290567C12.25722963723477,499.68840265290567,12.25722963723477,497.83974632652723,0,497.83974632652723Z"><title>gas</title></path><path fill="#2e2f2f" d="M0,498.83974632652723C12.25722963723477,498.83974632652723,12.25722963723477,500.68840265290567,24.51445927446954,500.68840265290567C36.77168891170431,500.68840265290567,36.77168891170431,502.05279764502615,49.02891854893908,502.05279764502615C61.31972963723477,502.05279764502615,61.31972963723477,505.7032527845478,73.61054072553047,505.7032527845478C85.86777036276524,505.7032527845478,85.86777036276524,505.53091060986714,98.125,505.53091060986714C110.38222963723477,505.53091060986714,110.38222963723477,508.87877006405387,122.63945927446954,508.87877006405387C134.8966889117043,508.87877006405387,134.8966889117043,510.86166363639904,147.15391854893906,510.86166363639904C159.44472963723476,510.86166363639904,159.44472963723476,511.8653071958404,171.73554072553046,511.8653071958404C183.9927703627652,511.8653071958404,183.9927703627652,511.12958833459106,196.25,511.12958833459106C208.50722963723476,511.12958833459106,208.50722963723476,511.19814028240523,220.76445927446952,511.19814028240523C233.0216889117043,511.19814028240523,233.0216889117043,506.9409969743705,245.2789185489391,506.9409969743705C257.5697296372348,506.9409969743705,257.5697296372348,507.9996219187801,269.8605407255305,507.9996219187801C282.1177703627652,507.9996219187801,282.1177703627652,509.4047847230561,294.375,509.4047847230561C306.6322296372348,509.4047847230561,306.6322296372348,509.51342682830136,318.8894592744695,509.51342682830136C331.1466889117043,509.51342682830136,331.1466889117043,511.0890963488064,343.4039185489391,511.0890963488064C355.6947296372348,511.0890963488064,355.6947296372348,511.2643880089255,367.9855407255305,511.2643880089255C380.2427703627652,511.2643880089255,380.2427703627652,514.2162815864506,392.5,514.2162815864506C404.7572296372348,514.2162815864506,404.7572296372348,513.8362516579095,417.0144592744696,513.8362516579095C429.2716889117043,513.8362516579095,429.2716889117043,513.6665616698089,441.52891854893903,513.6665616698089C453.81972963723473,513.6665616698089,453.81972963723473,513.1164752758048,466.1105407255304,513.1164752758048C478.3677703627652,513.1164752758048,478.3677703627652,512.7349341125899,490.625,512.7349341125899C502.8822296372348,512.7349341125899,502.8822296372348,508.55165136116807,515.1394592744696,508.55165136116807C527.3966889117044,508.55165136116807,527.3966889117044,504.9489737493675,539.653918548939,504.9489737493675C551.9447296372348,504.9489737493675,551.9447296372348,503.1742311876317,564.2355407255304,503.1742311876317C576.4927703627652,503.1742311876317,576.4927703627652,501.8181456452374,588.75,501.8181456452374C601.0072296372348,501.8181456452374,601.0072296372348,497.71815413859065,613.2644592744696,497.71815413859065C625.5216889117044,497.71815413859065,625.5216889117044,496.0382931652497,637.778918548939,496.0382931652497C650.0697296372348,496.0382931652497,650.0697296372348,517.1482943102992,662.3605407255304,517.1482943102992C674.6177703627652,517.1482943102992,674.6177703627652,516.939870482369,686.875,516.939870482369C699.1322296372348,516.939870482369,699.1322296372348,515.5897012144414,711.3894592744696,515.5897012144414C723.6466889117044,515.5897012144414,723.6466889117044,530.1453065551743,735.903918548939,530.1453065551743C748.1947296372348,530.1453065551743,748.1947296372348,529.6087953875597,760.4855407255304,529.6087953875597C772.7427703627652,529.6087953875597,772.7427703627652,528.3356755920295,785,528.3356755920295L785,544.1285479636167C772.7427703627652,544.1285479636167,772.7427703627652,544.1221803403782,760.4855407255304,544.1221803403782C748.1947296372348,544.1221803403782,748.1947296372348,544.5014984984571,735.903918548939,544.5014984984571C723.6466889117044,544.5014984984571,723.6466889117044,530.5884850972021,711.3894592744696,530.5884850972021C699.1322296372348,530.5884850972021,699.1322296372348,533.3997267907228,686.875,533.3997267907228C674.6177703627652,533.3997267907228,674.6177703627652,535.7221058198905,662.3605407255304,535.7221058198905C650.0697296372348,535.7221058198905,650.0697296372348,517.097311317177,637.778918548939,517.097311317177C625.5216889117044,517.097311317177,625.5216889117044,520.6998378108134,613.2644592744696,520.6998378108134C601.0072296372348,520.6998378108134,601.0072296372348,524.938339218617,588.75,524.938339218617C576.4927703627652,524.938339218617,576.4927703627652,528.1420907605406,564.2355407255304,528.1420907605406C551.9447296372348,528.1420907605406,551.9447296372348,531.5203443622286,539.653918548939,531.5203443622286C527.3966889117044,531.5203443622286,527.3966889117044,534.5036331133791,515.1394592744696,534.5036331133791C502.8822296372348,534.5036331133791,502.8822296372348,537.3354940498525,490.625,537.3354940498525C478.3677703627652,537.3354940498525,478.3677703627652,539.2750714128533,466.1105407255304,539.2750714128533C453.81972963723473,539.2750714128533,453.81972963723473,541.606687936083,441.52891854893903,541.606687936083C429.2716889117043,541.606687936083,429.2716889117043,543.275370347463,417.0144592744696,543.275370347463C404.7572296372348,543.275370347463,404.7572296372348,544.4526529793442,392.5,544.4526529793442C380.2427703627652,544.4526529793442,380.2427703627652,545.257297239648,367.9855407255305,545.257297239648C355.6947296372348,545.257297239648,355.6947296372348,546.1580931935799,343.4039185489391,546.1580931935799C331.1466889117043,546.1580931935799,331.1466889117043,546.9544168088948,318.8894592744695,546.9544168088948C306.6322296372348,546.9544168088948,306.6322296372348,547.4439535947711,294.375,547.4439535947711C282.1177703627652,547.4439535947711,282.1177703627652,548.1202609358647,269.8605407255305,548.1202609358647C257.5697296372348,548.1202609358647,257.5697296372348,548.0683802367956,245.2789185489391,548.0683802367956C233.0216889117043,548.0683802367956,233.0216889117043,555.230626026662,220.76445927446952,555.230626026662C208.50722963723476,555.230626026662,208.50722963723476,557.4016399943994,196.25,557.4016399943994C183.9927703627652,557.4016399943994,183.9927703627652,557.5311821776356,171.73554072553046,557.5311821776356C159.44472963723476,557.5311821776356,159.44472963723476,557.6277757909346,147.15391854893906,557.6277757909346C134.8966889117043,557.6277757909346,134.8966889117043,557.6550282365247,122.63945927446954,557.6550282365247C110.38222963723477,557.6550282365247,110.38222963723477,557.6904078108435,98.125,557.6904078108435C85.86777036276524,557.6904078108435,85.86777036276524,557.7427700595854,73.61054072553047,557.7427700595854C61.31972963723477,557.7427700595854,61.31972963723477,557.7818407561571,49.02891854893908,557.7818407561571C36.77168891170431,557.7818407561571,36.77168891170431,557.8057272297699,24.51445927446954,557.8057272297699C12.25722963723477,557.8057272297699,12.25722963723477,557.826205993707,0,557.826205993707Z"><title>oil</title></path><path fill="#6ebcb3" d="M0,558.826205993707C12.25722963723477,558.826205993707,12.25722963723477,558.8057272297699,24.51445927446954,558.8057272297699C36.77168891170431,558.8057272297699,36.77168891170431,558.7818407561571,49.02891854893908,558.7818407561571C61.31972963723477,558.7818407561571,61.31972963723477,558.7427700595854,73.61054072553047,558.7427700595854C85.86777036276524,558.7427700595854,85.86777036276524,558.6904078108435,98.125,558.6904078108435C110.38222963723477,558.6904078108435,110.38222963723477,558.6550282365247,122.63945927446954,558.6550282365247C134.8966889117043,558.6550282365247,134.8966889117043,558.6277757909346,147.15391854893906,558.6277757909346C159.44472963723476,558.6277757909346,159.44472963723476,558.5311821776356,171.73554072553046,558.5311821776356C183.9927703627652,558.5311821776356,183.9927703627652,558.4016399943994,196.25,558.4016399943994C208.50722963723476,558.4016399943994,208.50722963723476,556.230626026662,220.76445927446952,556.230626026662C233.0216889117043,556.230626026662,233.0216889117043,557.903732225132,245.2789185489391,557.903732225132C257.5697296372348,557.903732225132,257.5697296372348,557.6763807218061,269.8605407255305,557.6763807218061C282.1177703627652,557.6763807218061,282.1177703627652,557.261416029979,294.375,557.261416029979C306.6322296372348,557.261416029979,306.6322296372348,554.2012175330156,318.8894592744695,554.2012175330156C331.1466889117043,554.2012175330156,331.1466889117043,553.6543119318361,343.4039185489391,553.6543119318361C355.6947296372348,553.6543119318361,355.6947296372348,553.2309105873011,367.9855407255305,553.2309105873011C380.2427703627652,553.2309105873011,380.2427703627652,552.5425921102703,392.5,552.5425921102703C404.7572296372348,552.5425921102703,404.7572296372348,551.6697702600743,417.0144592744696,551.6697702600743C429.2716889117043,551.6697702600743,429.2716889117043,550.2989151413915,441.52891854893903,550.2989151413915C453.81972963723473,550.2989151413915,453.81972963723473,548.5504569888163,466.1105407255304,548.5504569888163C478.3677703627652,548.5504569888163,478.3677703627652,538.3354940498525,490.625,538.3354940498525C502.8822296372348,538.3354940498525,502.8822296372348,535.5036331133791,515.1394592744696,535.5036331133791C527.3966889117044,535.5036331133791,527.3966889117044,532.5203443622286,539.653918548939,532.5203443622286C551.9447296372348,532.5203443622286,551.9447296372348,529.1420907605406,564.2355407255304,529.1420907605406C576.4927703627652,529.1420907605406,576.4927703627652,525.938339218617,588.75,525.938339218617C601.0072296372348,525.938339218617,601.0072296372348,521.6998378108134,613.2644592744696,521.6998378108134C625.5216889117044,521.6998378108134,625.5216889117044,518.097311317177,637.778918548939,518.097311317177C650.0697296372348,518.097311317177,650.0697296372348,493.0312658923087,662.3605407255304,493.0312658923087C674.6177703627652,493.0312658923087,674.6177703627652,491.18591656552564,686.875,491.18591656552564C699.1322296372348,491.18591656552564,699.1322296372348,487.1804943483821,711.3894592744696,487.1804943483821C723.6466889117044,487.1804943483821,723.6466889117044,480.91091643160894,735.903918548939,480.91091643160894C748.1947296372348,480.91091643160894,748.1947296372348,474.7615869823687,760.4855407255304,474.7615869823687C772.7427703627652,474.7615869823687,772.7427703627652,465.1525269039382,785,465.1525269039382L785,503.32806348495774C772.7427703627652,503.32806348495774,772.7427703627652,508.58646333454533,760.4855407255304,508.58646333454533C748.1947296372348,508.58646333454533,748.1947296372348,511.6600971589263,735.903918548939,511.6600971589263C723.6466889117044,511.6600971589263,723.6466889117044,514.5897012144414,711.3894592744696,514.5897012144414C699.1322296372348,514.5897012144414,699.1322296372348,515.939870482369,686.875,515.939870482369C674.6177703627652,515.939870482369,674.6177703627652,516.1482943102992,662.3605407255304,516.1482943102992C650.0697296372348,516.1482943102992,650.0697296372348,538.2068547512409,637.778918548939,538.2068547512409C625.5216889117044,538.2068547512409,625.5216889117044,539.5235580062641,613.2644592744696,539.5235580062641C601.0072296372348,539.5235580062641,601.0072296372348,541.5115525012446,588.75,541.5115525012446C576.4927703627652,541.5115525012446,576.4927703627652,543.4532827956216,564.2355407255304,543.4532827956216C551.9447296372348,543.4532827956216,551.9447296372348,544.6703861941497,539.653918548939,544.6703861941497C527.3966889117044,544.6703861941497,527.3966889117044,545.8572012363069,515.1394592744696,545.8572012363069C502.8822296372348,545.8572012363069,502.8822296372348,546.7479431323541,490.625,546.7479431323541C478.3677703627652,546.7479431323541,478.3677703627652,555.7303295436246,466.1105407255304,555.7303295436246C453.81972963723473,555.7303295436246,453.81972963723473,555.99756256854,441.52891854893903,555.99756256854C429.2716889117043,555.99756256854,429.2716889117043,556.1645752656859,417.0144592744696,556.1645752656859C404.7572296372348,556.1645752656859,404.7572296372348,556.2024537014889,392.5,556.2024537014889C380.2427703627652,556.2024537014889,380.2427703627652,556.208259899754,367.9855407255305,556.208259899754C355.6947296372348,556.208259899754,355.6947296372348,556.1936400429433,343.4039185489391,556.1936400429433C331.1466889117043,556.1936400429433,331.1466889117043,556.183258923826,318.8894592744695,556.183258923826C306.6322296372348,556.183258923826,306.6322296372348,558.9453153376263,294.375,558.9453153376263C282.1177703627652,558.9453153376263,282.1177703627652,558.9547738287633,269.8605407255305,558.9547738287633C257.5697296372348,558.9547738287633,257.5697296372348,558.9632763896756,245.2789185489391,558.9632763896756C233.0216889117043,558.9632763896756,233.0216889117043,556.9685297714476,220.76445927446952,556.9685297714476C208.50722963723476,556.9685297714476,208.50722963723476,558.9709828255574,196.25,558.9709828255574C183.9927703627652,558.9709828255574,183.9927703627652,558.9724952632818,171.73554072553046,558.9724952632818C159.44472963723476,558.9724952632818,159.44472963723476,558.9737493942291,147.15391854893906,558.9737493942291C134.8966889117043,558.9737493942291,134.8966889117043,558.9752669318922,122.63945927446954,558.9752669318922C110.38222963723477,558.9752669318922,110.38222963723477,558.9760864137029,98.125,558.9760864137029C85.86777036276524,558.9760864137029,85.86777036276524,558.9771286326609,73.61054072553047,558.9771286326609C61.31972963723477,558.9771286326609,61.31972963723477,558.9804191684119,49.02891854893908,558.9804191684119C36.77168891170431,558.9804191684119,36.77168891170431,558.9786187567312,24.51445927446954,558.9786187567312C12.25722963723477,558.9786187567312,12.25722963723477,558.9832141492477,0,558.9832141492477Z"><title>wind</title></path><path fill="#f8e71c" d="M0,559.9832141492477C12.25722963723477,559.9832141492477,12.25722963723477,559.9786187567312,24.51445927446954,559.9786187567312C36.77168891170431,559.9786187567312,36.77168891170431,559.9804191684119,49.02891854893908,559.9804191684119C61.31972963723477,559.9804191684119,61.31972963723477,559.9771286326609,73.61054072553047,559.9771286326609C85.86777036276524,559.9771286326609,85.86777036276524,559.9760864137029,98.125,559.9760864137029C110.38222963723477,559.9760864137029,110.38222963723477,559.9752669318922,122.63945927446954,559.9752669318922C134.8966889117043,559.9752669318922,134.8966889117043,559.9737493942291,147.15391854893906,559.9737493942291C159.44472963723476,559.9737493942291,159.44472963723476,559.9724952632818,171.73554072553046,559.9724952632818C183.9927703627652,559.9724952632818,183.9927703627652,559.9709828255574,196.25,559.9709828255574C208.50722963723476,559.9709828255574,208.50722963723476,557.9685297714476,220.76445927446952,557.9685297714476C233.0216889117043,557.9685297714476,233.0216889117043,559.9632763896756,245.2789185489391,559.9632763896756C257.5697296372348,559.9632763896756,257.5697296372348,559.9547738287633,269.8605407255305,559.9547738287633C282.1177703627652,559.9547738287633,282.1177703627652,559.9453153376263,294.375,559.9453153376263C306.6322296372348,559.9453153376263,306.6322296372348,559.9353172681857,318.8894592744695,559.9353172681857C331.1466889117043,559.9353172681857,331.1466889117043,559.91928713135,343.4039185489391,559.91928713135C355.6947296372348,559.91928713135,355.6947296372348,559.8916702242653,367.9855407255305,559.8916702242653C380.2427703627652,559.8916702242653,380.2427703627652,559.8591618892151,392.5,559.8591618892151C404.7572296372348,559.8591618892151,404.7572296372348,559.8180091823835,417.0144592744696,559.8180091823835C429.2716889117043,559.8180091823835,429.2716889117043,559.7058361667996,441.52891854893903,559.7058361667996C453.81972963723473,559.7058361667996,453.81972963723473,559.5005736032812,466.1105407255304,559.5005736032812C478.3677703627652,559.5005736032812,478.3677703627652,559.2450459723932,490.625,559.2450459723932C502.8822296372348,559.2450459723932,502.8822296372348,558.5459066091349,515.1394592744696,558.5459066091349C527.3966889117044,558.5459066091349,527.3966889117044,555.1867363183293,539.653918548939,555.1867363183293C551.9447296372348,555.1867363183293,551.9447296372348,554.4466316653048,564.2355407255304,554.4466316653048C576.4927703627652,554.4466316653048,576.4927703627652,553.0416174382779,588.75,553.0416174382779C601.0072296372348,553.0416174382779,601.0072296372348,551.7609493070036,613.2644592744696,551.7609493070036C625.5216889117044,551.7609493070036,625.5216889117044,550.3442942626223,637.778918548939,550.3442942626223C650.0697296372348,550.3442942626223,650.0697296372348,548.1997396204154,662.3605407255304,548.1997396204154C674.6177703627652,548.1997396204154,674.6177703627652,534.3997267907228,686.875,534.3997267907228C699.1322296372348,534.3997267907228,699.1322296372348,531.5884850972021,711.3894592744696,531.5884850972021C723.6466889117044,531.5884850972021,723.6466889117044,512.6600971589263,735.903918548939,512.6600971589263C748.1947296372348,512.6600971589263,748.1947296372348,509.58646333454533,760.4855407255304,509.58646333454533C772.7427703627652,509.58646333454533,772.7427703627652,504.32806348495774,785,504.32806348495774L785,527.3356755920295C772.7427703627652,527.3356755920295,772.7427703627652,528.6087953875597,760.4855407255304,528.6087953875597C748.1947296372348,528.6087953875597,748.1947296372348,529.1453065551743,735.903918548939,529.1453065551743C723.6466889117044,529.1453065551743,723.6466889117044,545.1277076193486,711.3894592744696,545.1277076193486C699.1322296372348,545.1277076193486,699.1322296372348,545.5622772624196,686.875,545.5622772624196C674.6177703627652,545.5622772624196,674.6177703627652,557.2426412254114,662.3605407255304,557.2426412254114C650.0697296372348,557.2426412254114,650.0697296372348,557.2416591574507,637.778918548939,557.2416591574507C625.5216889117044,557.2416591574507,625.5216889117044,557.2448895344558,613.2644592744696,557.2448895344558C601.0072296372348,557.2448895344558,601.0072296372348,557.3116394637974,588.75,557.3116394637974C576.4927703627652,557.3116394637974,576.4927703627652,557.3799829719011,564.2355407255304,557.3799829719011C551.9447296372348,557.3799829719011,551.9447296372348,557.3723706506274,539.653918548939,557.3723706506274C527.3966889117044,557.3723706506274,527.3966889117044,560,515.1394592744696,560C502.8822296372348,560,502.8822296372348,560,490.625,560C478.3677703627652,560,478.3677703627652,560,466.1105407255304,560C453.81972963723473,560,453.81972963723473,560,441.52891854893903,560C429.2716889117043,560,429.2716889117043,560,417.0144592744696,560C404.7572296372348,560,404.7572296372348,560,392.5,560C380.2427703627652,560,380.2427703627652,560,367.9855407255305,560C355.6947296372348,560,355.6947296372348,560,343.4039185489391,560C331.1466889117043,560,331.1466889117043,560,318.8894592744695,560C306.6322296372348,560,306.6322296372348,560,294.375,560C282.1177703627652,560,282.1177703627652,560,269.8605407255305,560C257.5697296372348,560,257.5697296372348,560,245.2789185489391,560C233.0216889117043,560,233.0216889117043,558,220.76445927446952,558C208.50722963723476,558,208.50722963723476,560,196.25,560C183.9927703627652,560,183.9927703627652,560,171.73554072553046,560C159.44472963723476,560,159.44472963723476,560,147.15391854893906,560C134.8966889117043,560,134.8966889117043,560,122.63945927446954,560C110.38222963723477,560,110.38222963723477,560,98.125,560C85.86777036276524,560,85.86777036276524,560,73.61054072553047,560C61.31972963723477,560,61.31972963723477,560,49.02891854893908,560C36.77168891170431,560,36.77168891170431,560,24.51445927446954,560C12.25722963723477,560,12.25722963723477,560,0,560Z"><title>solar</title></path><path fill="#e377c2" d="M0,560C12.25722963723477,560,12.25722963723477,560,24.51445927446954,560C36.77168891170431,560,36.77168891170431,560,49.02891854893908,560C61.31972963723477,560,61.31972963723477,560,73.61054072553047,560C85.86777036276524,560,85.86777036276524,560,98.125,560C110.38222963723477,560,110.38222963723477,560,122.63945927446954,560C134.8966889117043,560,134.8966889117043,560,147.15391854893906,560C159.44472963723476,560,159.44472963723476,560,171.73554072553046,560C183.9927703627652,560,183.9927703627652,560,196.25,560C208.50722963723476,560,208.50722963723476,560,220.76445927446952,560C233.0216889117043,560,233.0216889117043,555.1229771578294,245.2789185489391,555.1229771578294C257.5697296372348,555.1229771578294,257.5697296372348,554.9142350869541,269.8605407255305,554.9142350869541C282.1177703627652,554.9142350869541,282.1177703627652,554.5115068340227,294.375,554.5115068340227C306.6322296372348,554.5115068340227,306.6322296372348,557.183258923826,318.8894592744695,557.183258923826C331.1466889117043,557.183258923826,331.1466889117043,557.1936400429433,343.4039185489391,557.1936400429433C355.6947296372348,557.1936400429433,355.6947296372348,557.208259899754,367.9855407255305,557.208259899754C380.2427703627652,557.208259899754,380.2427703627652,557.2024537014889,392.5,557.2024537014889C404.7572296372348,557.2024537014889,404.7572296372348,557.1645752656859,417.0144592744696,557.1645752656859C429.2716889117043,557.1645752656859,429.2716889117043,556.99756256854,441.52891854893903,556.99756256854C453.81972963723473,556.99756256854,453.81972963723473,556.7303295436246,466.1105407255304,556.7303295436246C478.3677703627652,556.7303295436246,478.3677703627652,556.582445121902,490.625,556.582445121902C502.8822296372348,556.582445121902,502.8822296372348,555.9079650320683,515.1394592744696,555.9079650320683C527.3966889117044,555.9079650320683,527.3966889117044,558.3723706506274,539.653918548939,558.3723706506274C551.9447296372348,558.3723706506274,551.9447296372348,558.3799829719011,564.2355407255304,558.3799829719011C576.4927703627652,558.3799829719011,576.4927703627652,558.3116394637974,588.75,558.3116394637974C601.0072296372348,558.3116394637974,601.0072296372348,558.2448895344558,613.2644592744696,558.2448895344558C625.5216889117044,558.2448895344558,625.5216889117044,558.2416591574507,637.778918548939,558.2416591574507C650.0697296372348,558.2416591574507,650.0697296372348,558.2426412254114,662.3605407255304,558.2426412254114C674.6177703627652,558.2426412254114,674.6177703627652,558.248252152697,686.875,558.248252152697C699.1322296372348,558.248252152697,699.1322296372348,558.2399918240511,711.3894592744696,558.2399918240511C723.6466889117044,558.2399918240511,723.6466889117044,558.1757367970588,735.903918548939,558.1757367970588C748.1947296372348,558.1757367970588,748.1947296372348,558.2624833711167,760.4855407255304,558.2624833711167C772.7427703627652,558.2624833711167,772.7427703627652,558.2200941373341,785,558.2200941373341L785,560C772.7427703627652,560,772.7427703627652,560,760.4855407255304,560C748.1947296372348,560,748.1947296372348,560,735.903918548939,560C723.6466889117044,560,723.6466889117044,560,711.3894592744696,560C699.1322296372348,560,699.1322296372348,560,686.875,560C674.6177703627652,560,674.6177703627652,560,662.3605407255304,560C650.0697296372348,560,650.0697296372348,560,637.778918548939,560C625.5216889117044,560,625.5216889117044,560,613.2644592744696,560C601.0072296372348,560,601.0072296372348,560,588.75,560C576.4927703627652,560,576.4927703627652,560,564.2355407255304,560C551.9447296372348,560,551.9447296372348,560,539.653918548939,560C527.3966889117044,560,527.3966889117044,557.5459066091349,515.1394592744696,557.5459066091349C502.8822296372348,557.5459066091349,502.8822296372348,558.2450459723932,490.625,558.2450459723932C478.3677703627652,558.2450459723932,478.3677703627652,558.5005736032812,466.1105407255304,558.5005736032812C453.81972963723473,558.5005736032812,453.81972963723473,558.7058361667996,441.52891854893903,558.7058361667996C429.2716889117043,558.7058361667996,429.2716889117043,558.8180091823835,417.0144592744696,558.8180091823835C404.7572296372348,558.8180091823835,404.7572296372348,558.8591618892151,392.5,558.8591618892151C380.2427703627652,558.8591618892151,380.2427703627652,558.8916702242653,367.9855407255305,558.8916702242653C355.6947296372348,558.8916702242653,355.6947296372348,558.91928713135,343.4039185489391,558.91928713135C331.1466889117043,558.91928713135,331.1466889117043,558.9353172681857,318.8894592744695,558.9353172681857C306.6322296372348,558.9353172681857,306.6322296372348,556.261416029979,294.375,556.261416029979C282.1177703627652,556.261416029979,282.1177703627652,556.6763807218061,269.8605407255305,556.6763807218061C257.5697296372348,556.6763807218061,257.5697296372348,556.903732225132,245.2789185489391,556.903732225132C233.0216889117043,556.903732225132,233.0216889117043,560,220.76445927446952,560C208.50722963723476,560,208.50722963723476,560,196.25,560C183.9927703627652,560,183.9927703627652,560,171.73554072553046,560C159.44472963723476,560,159.44472963723476,560,147.15391854893906,560C134.8966889117043,560,134.8966889117043,560,122.63945927446954,560C110.38222963723477,560,110.38222963723477,560,98.125,560C85.86777036276524,560,85.86777036276524,560,73.61054072553047,560C61.31972963723477,560,61.31972963723477,560,49.02891854893908,560C36.77168891170431,560,36.77168891170431,560,24.51445927446954,560C12.25722963723477,560,12.25722963723477,560,0,560Z"><title>other_renewables</title></path><path fill="#417505" d="M0,560C12.25722963723477,560,12.25722963723477,560,24.51445927446954,560C36.77168891170431,560,36.77168891170431,560,49.02891854893908,560C61.31972963723477,560,61.31972963723477,560,73.61054072553047,560C85.86777036276524,560,85.86777036276524,560,98.125,560C110.38222963723477,560,110.38222963723477,560,122.63945927446954,560C134.8966889117043,560,134.8966889117043,560,147.15391854893906,560C159.44472963723476,560,159.44472963723476,560,171.73554072553046,560C183.9927703627652,560,183.9927703627652,560,196.25,560C208.50722963723476,560,208.50722963723476,559,220.76445927446952,559C233.0216889117043,559,233.0216889117043,549.0683802367956,245.2789185489391,549.0683802367956C257.5697296372348,549.0683802367956,257.5697296372348,549.1202609358647,269.8605407255305,549.1202609358647C282.1177703627652,549.1202609358647,282.1177703627652,548.4439535947711,294.375,548.4439535947711C306.6322296372348,548.4439535947711,306.6322296372348,547.9544168088948,318.8894592744695,547.9544168088948C331.1466889117043,547.9544168088948,331.1466889117043,547.1580931935799,343.4039185489391,547.1580931935799C355.6947296372348,547.1580931935799,355.6947296372348,546.257297239648,367.9855407255305,546.257297239648C380.2427703627652,546.257297239648,380.2427703627652,545.4526529793442,392.5,545.4526529793442C404.7572296372348,545.4526529793442,404.7572296372348,544.275370347463,417.0144592744696,544.275370347463C429.2716889117043,544.275370347463,429.2716889117043,542.606687936083,441.52891854893903,542.606687936083C453.81972963723473,542.606687936083,453.81972963723473,540.2750714128533,466.1105407255304,540.2750714128533C478.3677703627652,540.2750714128533,478.3677703627652,547.7479431323541,490.625,547.7479431323541C502.8822296372348,547.7479431323541,502.8822296372348,546.8572012363069,515.1394592744696,546.8572012363069C527.3966889117044,546.8572012363069,527.3966889117044,545.6703861941497,539.653918548939,545.6703861941497C551.9447296372348,545.6703861941497,551.9447296372348,544.4532827956216,564.2355407255304,544.4532827956216C576.4927703627652,544.4532827956216,576.4927703627652,542.5115525012446,588.75,542.5115525012446C601.0072296372348,542.5115525012446,601.0072296372348,540.5235580062641,613.2644592744696,540.5235580062641C625.5216889117044,540.5235580062641,625.5216889117044,539.2068547512409,637.778918548939,539.2068547512409C650.0697296372348,539.2068547512409,650.0697296372348,536.7221058198905,662.3605407255304,536.7221058198905C674.6177703627652,536.7221058198905,674.6177703627652,546.5622772624196,686.875,546.5622772624196C699.1322296372348,546.5622772624196,699.1322296372348,546.1277076193486,711.3894592744696,546.1277076193486C723.6466889117044,546.1277076193486,723.6466889117044,545.5014984984571,735.903918548939,545.5014984984571C748.1947296372348,545.5014984984571,748.1947296372348,545.1221803403782,760.4855407255304,545.1221803403782C772.7427703627652,545.1221803403782,772.7427703627652,545.1285479636167,785,545.1285479636167L785,557.2200941373341C772.7427703627652,557.2200941373341,772.7427703627652,557.2624833711167,760.4855407255304,557.2624833711167C748.1947296372348,557.2624833711167,748.1947296372348,557.1757367970588,735.903918548939,557.1757367970588C723.6466889117044,557.1757367970588,723.6466889117044,557.2399918240511,711.3894592744696,557.2399918240511C699.1322296372348,557.2399918240511,699.1322296372348,557.248252152697,686.875,557.248252152697C674.6177703627652,557.248252152697,674.6177703627652,547.1997396204154,662.3605407255304,547.1997396204154C650.0697296372348,547.1997396204154,650.0697296372348,549.3442942626223,637.778918548939,549.3442942626223C625.5216889117044,549.3442942626223,625.5216889117044,550.7609493070036,613.2644592744696,550.7609493070036C601.0072296372348,550.7609493070036,601.0072296372348,552.0416174382779,588.75,552.0416174382779C576.4927703627652,552.0416174382779,576.4927703627652,553.4466316653048,564.2355407255304,553.4466316653048C551.9447296372348,553.4466316653048,551.9447296372348,554.1867363183293,539.653918548939,554.1867363183293C527.3966889117044,554.1867363183293,527.3966889117044,554.9079650320683,515.1394592744696,554.9079650320683C502.8822296372348,554.9079650320683,502.8822296372348,555.582445121902,490.625,555.582445121902C478.3677703627652,555.582445121902,478.3677703627652,547.5504569888163,466.1105407255304,547.5504569888163C453.81972963723473,547.5504569888163,453.81972963723473,549.2989151413915,441.52891854893903,549.2989151413915C429.2716889117043,549.2989151413915,429.2716889117043,550.6697702600743,417.0144592744696,550.6697702600743C404.7572296372348,550.6697702600743,404.7572296372348,551.5425921102703,392.5,551.5425921102703C380.2427703627652,551.5425921102703,380.2427703627652,552.2309105873011,367.9855407255305,552.2309105873011C355.6947296372348,552.2309105873011,355.6947296372348,552.6543119318361,343.4039185489391,552.6543119318361C331.1466889117043,552.6543119318361,331.1466889117043,553.2012175330156,318.8894592744695,553.2012175330156C306.6322296372348,553.2012175330156,306.6322296372348,553.5115068340227,294.375,553.5115068340227C282.1177703627652,553.5115068340227,282.1177703627652,553.9142350869541,269.8605407255305,553.9142350869541C257.5697296372348,553.9142350869541,257.5697296372348,554.1229771578294,245.2789185489391,554.1229771578294C233.0216889117043,554.1229771578294,233.0216889117043,559,220.76445927446952,559C208.50722963723476,559,208.50722963723476,560,196.25,560C183.9927703627652,560,183.9927703627652,560,171.73554072553046,560C159.44472963723476,560,159.44472963723476,560,147.15391854893906,560C134.8966889117043,560,134.8966889117043,560,122.63945927446954,560C110.38222963723477,560,110.38222963723477,560,98.125,560C85.86777036276524,560,85.86777036276524,560,73.61054072553047,560C61.31972963723477,560,61.31972963723477,560,49.02891854893908,560C36.77168891170431,560,36.77168891170431,560,24.51445927446954,560C12.25722963723477,560,12.25722963723477,560,0,560Z"><title>bioenergy</title></path></g><g id="xAxis" transform="translate(0,560)" fill="none" font-size="10" font-family="sans-serif" text-anchor="middle"><path class="domain" stroke="currentColor" d="M0.5,0.5H785.5"/><g class="tick" opacity="1" transform="translate(0.5,0)"><line stroke="currentColor" y2="6"/><text fill="currentColor" y="9" dy="0.71em">1990</text></g><g class="tick" opacity="1" transform="translate(123.13945927446954,0)"><line stroke="currentColor" y2="6"/><text fill="currentColor" y="9" dy="0.71em">1995</text></g><g class="tick" opacity="1" transform="translate(245.7789185489391,0)"><line stroke="currentColor" y2="6"/><text fill="currentColor" y="9" dy="0.71em">2000</text></g><g class="tick" opacity="1" transform="translate(368.4855407255305,0)"><line stroke="currentColor" y2="6"/><text fill="currentColor" y="9" dy="0.71em">2005</text></g><g class="tick" opacity="1" transform="translate(491.125,0)"><line stroke="currentColor" y2="6"/><text fill="currentColor" y="9" dy="0.71em">2010</text></g><g class="tick" opacity="1" transform="translate(613.7644592744696,0)"><line stroke="currentColor" y2="6"/><text fill="currentColor" y="9" dy="0.71em">2015</text></g><g class="tick" opacity="1" transform="translate(736.403918548939,0)"><line stroke="currentColor" y2="6"/><text fill="currentColor" y="9" dy="0.71em">2020</text></g></g><text style="font-family: Arial, sans-serif; font-size: 12px; fill: rgb(123, 123, 123); font-weight: bold;" y="556" x="785" text-anchor="end">Year</text><text style="font-family: Arial, sans-serif; font-size: 12px; fill: rgb(123, 123, 123); font-weight: bold;" x="4" text-anchor="start" dominant-baseline="hanging">energy_twh</text><g id="labels"><text x="417.0144592744696" y="155.2095538416585" text-anchor="middle" alignment-baseline="middle" style="font-family: Arial, sans-serif; font-size: 10px; fill: black; font-weight: bold; stroke-width: 2px; paint-order: stroke; stroke: white; stroke-linecap: round; stroke-linejoin: round;">coal</text><text x="73.61054072553047" y="293.25714202532185" text-anchor="middle" alignment-baseline="middle" style="font-family: Arial, sans-serif; font-size: 10px; fill: black; font-weight: bold; stroke-width: 2px; paint-order: stroke; stroke: white; stroke-linecap: round; stroke-linejoin: round;">hydro</text><text x="147.15391854893906" y="388.788509808628" text-anchor="middle" alignment-baseline="middle" style="font-family: Arial, sans-serif; font-size: 10px; fill: black; font-weight: bold; stroke-width: 2px; paint-order: stroke; stroke: white; stroke-linecap: round; stroke-linejoin: round;">nuclear</text><text x="711.3894592744696" y="297.46644471521375" text-anchor="middle" alignment-baseline="middle" style="font-family: Arial, sans-serif; font-size: 10px; fill: black; font-weight: bold; stroke-width: 2px; paint-order: stroke; stroke: white; stroke-linecap: round; stroke-linejoin: round;">gas</text><text x="0" y="530.3329761601171" text-anchor="start" alignment-baseline="middle" style="font-family: Arial, sans-serif; font-size: 10px; fill: black; font-weight: bold; stroke-width: 2px; paint-order: stroke; stroke: white; stroke-linecap: round; stroke-linejoin: round;">oil</text><text x="785" y="488.24029519444804" text-anchor="end" alignment-baseline="middle" style="font-family: Arial, sans-serif; font-size: 10px; fill: black; font-weight: bold; stroke-width: 2px; paint-order: stroke; stroke: white; stroke-linecap: round; stroke-linejoin: round;">wind</text><text x="785" y="518.8318695384936" text-anchor="end" alignment-baseline="middle" style="font-family: Arial, sans-serif; font-size: 10px; fill: black; font-weight: bold; stroke-width: 2px; paint-order: stroke; stroke: white; stroke-linecap: round; stroke-linejoin: round;">solar</text><text x="735.903918548939" y="559.0878683985294" text-anchor="middle" alignment-baseline="middle" style="font-family: Arial, sans-serif; font-size: 10px; fill: black; font-weight: bold; stroke-width: 2px; paint-order: stroke; stroke: white; stroke-linecap: round; stroke-linejoin: round;">other_renewables</text><text x="760.4855407255304" y="552.1923318557475" text-anchor="middle" alignment-baseline="middle" style="font-family: Arial, sans-serif; font-size: 10px; fill: black; font-weight: bold; stroke-width: 2px; paint-order: stroke; stroke: white; stroke-linecap: round; stroke-linejoin: round;">bioenergy</text></g></g><text x="4" y="4" style="font-family: Arial, sans-serif; font-size: 12px; fill: black; font-weight: bold; dominant-baseline: hanging;"/></g></g></svg>
